<svg xmlns="http://www.w3.org/2000/svg" xmlns:xlink="http://www.w3.org/1999/xlink" viewBox="0 0 216.9 167.95"><defs><style>.cls-1{fill:none;}.cls-2{fill:#4fafa6;}.cls-3{fill:#78c2bb;}.cls-4{fill:#83c7c1;}.cls-5{fill:#912079;}.cls-6{fill:#eddcea;}.cls-7{fill:#eedeeb;}.cls-8{fill:#f4b678;}.cls-9{fill:#fbe8de;}.cls-10{fill:#cbe7e4;}.cls-11{fill:#fae6ef;}.cls-12{fill:#e4c9de;}.cls-13{fill:#f3bad2;}.cls-14{fill:#77c1ba;}.cls-15{fill:#97d0ca;}.cls-16{fill:#ef9073;}.cls-17{fill:#cde8e6;}.cls-18{fill:#fbeff5;}.cls-19{fill:#d3ebe8;}.cls-20{fill:#f9dcd3;}.cls-21{fill:#def0ee;}.cls-22{fill:#d8edeb;}.cls-23{fill:#f2b5cf;}.cls-24{fill:#b9dfdc;}.cls-25{fill:#d5ebea;}.cls-26{fill:#f9dcbe;}.cls-27{fill:#e5cbdf;}.cls-28{fill:#b972aa;}.cls-29{fill:#d6adce;}.cls-30{fill:#c6e5e2;}.cls-31{fill:#c68ebb;}.cls-32{fill:#f8cec1;}.cls-33{fill:#3b867d;}.cls-34{fill:#f0963f;}.cls-35{fill:#d39648;}.cls-36{fill:#b5a05d;}.cls-37{fill:#c4327d;}.cls-38{fill:#a13383;}.cls-39{fill:#c3317d;}.cls-40{fill:#ac579a;}.cls-41{fill:#9b3283;}.cls-42{fill:#ba73ab;}.cls-43{fill:#dd327b;}.cls-44{fill:#c99a52;}.cls-45{fill:#6dbdb5;}.cls-46{fill:#a32b7d;}.cls-47{fill:#e35793;}.cls-48{fill:#6fbeb7;}.cls-49{fill:#7ec5be;}.cls-50{fill:#e96339;}.cls-51{fill:#e35d96;}.cls-52{fill:#f1ba81;}.cls-53{fill:#922079;}.cls-54{fill:#fefdfd;}.cls-55{fill:#df734d;}.cls-56{fill:#f7d5c8;}.cls-57{fill:#f4cbdf;}.cls-58{fill:#74b0ab;}.cls-59{fill:#c58955;}.cls-60{fill:#c4dfdd;}.cls-61{fill:#dc3c81;}.cls-62{fill:#da3c81;}.cls-63{fill:#ea6840;}.cls-64{fill:#df3f88;}.cls-65{fill:#df408c;}.cls-66{fill:#dd357f;}.cls-67{fill:#df3d7b;}.cls-68{fill:#ed8a68;}.cls-69{fill:#ed9072;}.cls-70{fill:#eb7855;}.cls-71{fill:#f1bdd6;}.cls-72{fill:#e469a5;}.cls-73{fill:#ea6e4b;}.cls-74{fill:#ec9086;}.cls-75{fill:#e7613b;}.cls-76{fill:#ed9584;}.cls-77{fill:#e0407f;}.cls-78{fill:#e67096;}.cls-79{fill:#e56da9;}.cls-80{fill:#e56ea9;}.cls-81{fill:#e46ba8;}.cls-82{fill:#e88ab9;}.cls-83{fill:#eea9ca;}.cls-84{fill:#e46da9;}.cls-85{fill:#ee977c;}.cls-86{fill:#e46ca9;}.cls-87{fill:#e469a7;}.cls-88{fill:#e883ad;}.cls-89{fill:#ee9a86;}.cls-90{fill:#e25899;}.cls-91{fill:#e04a93;}.cls-92{fill:#e35e9a;}.cls-93{fill:#ea8fac;}.cls-94{fill:#e04990;}.cls-95{fill:#ee8e6c;}.cls-96{fill:#e9849c;}.cls-97{fill:#ea95bf;}.cls-98{fill:#e571ab;}.cls-99{fill:#f1ab92;}.cls-100{fill:#e15196;}.cls-101{fill:#e98dbb;}.cls-102{fill:#eb7650;}.cls-103{fill:#e67ab0;}.cls-104{fill:#ea94bf;}.cls-105{fill:#ed99a8;}.cls-106{fill:#ea6f48;}.cls-107{fill:#ea6c43;}.cls-108{fill:#ee9574;}.cls-109{fill:#ed8f6d;}.cls-110{fill:#ef9b7f;}.cls-111{fill:#eb7850;}.cls-112{fill:#ee9476;}.cls-113{fill:#f1a98e;}.cls-114{fill:#f0a285;}.cls-115{fill:#efa082;}.cls-116{fill:#eb734d;}.cls-117{fill:#ed8b67;}.cls-118{fill:#e76959;}.cls-119{fill:#8aa674;}.cls-120{fill:#41887e;}.cls-121{fill:#d1e6e4;}.cls-122{fill:#cfe4e2;}.cls-123{fill:#6daca6;}.cls-124{fill:#4c8c80;}.cls-125{fill:#f6faf9;}.cls-126{fill:#f2b39c;}.cls-127{fill:#f0a487;}.cls-128{fill:#f1a78b;}.cls-129{fill:#ef9a7b;}.cls-130{fill:#eb7b58;}.cls-131{fill:#e678b0;}.cls-132{fill:#e988b7;}.cls-133{fill:#eb99c0;}.cls-134{fill:#e98cbc;}.cls-135{fill:#e77ab0;}.cls-136{fill:#e98ab8;}.cls-137{fill:#e56daa;}.cls-138{fill:#e46aa7;}.cls-139{fill:#de3b87;}.cls-140{fill:#e25a9e;}.cls-141{fill:#efb2d0;}.cls-142{fill:#e883b7;}.cls-143{fill:#e86142;}.cls-144{fill:#eb98b5;}.cls-145{fill:#f2b69e;}.cls-146{fill:#ed8f76;}.cls-147{fill:#f0a68a;}.cls-148{fill:#ea673d;}.cls-149{fill:#e991bc;}.cls-150{fill:#f4c2ae;}.cls-151{fill:#f0a88c;}.cls-152{fill:#f1a992;}.cls-153{fill:#ea92b8;}.cls-154{fill:#de367d;}.cls-155{fill:#de3880;}.cls-156{fill:#f0b2c3;}.cls-157{fill:#e45570;}.cls-158{fill:#ee9c84;}.cls-159{fill:#de3c86;}.cls-160{fill:#e780b4;}.cls-161{fill:#df438d;}.cls-162{fill:#ea96c1;}.cls-163{fill:#e888b7;}.cls-164{fill:#e98bba;}.cls-165{fill:#eb9cc5;}.cls-166{fill:#e676ad;}.cls-167{fill:#ee9170;}.cls-168{fill:#ea6c42;}.cls-169{fill:#f9e2d9;}.cls-170{fill:#f0d2ce;}.cls-171{fill:#e0c4dd;}.cls-172{fill:#df3e85;}.cls-173{fill:#efb0cf;}.cls-174{fill:#aa477f;}.cls-175{fill:#c05966;}.cls-176{clip-path:url(#clip-path);}.cls-177{fill:#fefefe;}</style><clipPath id="clip-path" transform="translate(11.97 0.02)"><ellipse class="cls-1" cx="85.61" cy="81.94" rx="85.04" ry="81.91"/></clipPath></defs><title>Recurso 3</title><g id="Capa_2" data-name="Capa 2"><g id="Capa_1-2" data-name="Capa 1"><path class="cls-2" d="M84,0h3.49c2.49,2.8,4.15,6.16,6.2,9.25a382.47,382.47,0,0,0,24.09,32.83c2.9,3.51,5.56,7.22,9,10.26a1.19,1.19,0,0,1,.28,1.14,1.59,1.59,0,0,1-.79.36c-9,.63-18,.34-27,.39a9.75,9.75,0,0,1-3.91-.39A248.51,248.51,0,0,1,75.78,32.78a39.67,39.67,0,0,0-4.14-5c-1.56-2.19-3.44-4.17-4.52-6.69-.08-2.3,2.48-3,3-5a1.64,1.64,0,0,1,.6-.8,5,5,0,0,0,2-2.5c1.15-1.09,1.82-2.6,3.09-3.59,2.64-2.15,4.4-5.08,6.67-7.57A9.94,9.94,0,0,1,84,0Z" transform="translate(11.97 0.02)"/><path class="cls-3" d="M126.42,52.52c-3.26-2.58-5.61-6-8.23-9.16A356.18,356.18,0,0,1,96.56,14.28,164.24,164.24,0,0,1,87.48,0h1a278.84,278.84,0,0,0,17.21,25.85c5.82,8.05,12.1,15.76,18.47,23.4.53.63,1.16,1.17,1.75,1.76C126.24,51.48,126.79,51.84,126.42,52.52Z" transform="translate(11.97 0.02)"/><path class="cls-4" d="M84,0a65.28,65.28,0,0,1-8,9.48.64.64,0,0,1-.1-.9l.1-.1A90.67,90.67,0,0,0,83,0Z" transform="translate(11.97 0.02)"/><path class="cls-5" d="M68,161.29l-.86.08c-1.18-.47-2.42-.75-3.6-1.2a7.85,7.85,0,0,1-1-.51c-4.65-1.73-9.28-3.47-13.76-5.62a75.9,75.9,0,0,1-19.12-12.82c-.58-.55-1.41-1.18-1.12-2.07s1.34-.73,2.16-.7a4.15,4.15,0,0,1,.76.17c2,.16,4,.76,6,.63,5.21.35,10.35,1.33,15.54,1.76,1.16.1,2.31.23,3.47.23,8.63,0,17.27-.07,25.91,0,5.42.06,10.72-.83,16.07-1.43a107.17,107.17,0,0,0,15.41-2.53,113.15,113.15,0,0,0,14.76-3.3c8.76-2.39,17.12-5.85,25.47-9.34,2.32.06,1.37,1.36.76,2.29a73,73,0,0,1-7.88,9.66,92.46,92.46,0,0,1-11.5,10.25c-8.51,6.82-18.33,10.91-28.74,13.75-3.36.92-6.84,1.26-10.25,2a91.43,91.43,0,0,1-21.87-.12,3.69,3.69,0,0,1-.82-.13A38.65,38.65,0,0,0,68,161.29Z" transform="translate(11.97 0.02)"/><path class="cls-6" d="M60,159.42c-4.24-.62-7.93-2.71-11.74-4.46A79.47,79.47,0,0,1,26.9,140.28,87.86,87.86,0,0,1,9.68,117.64a3.16,3.16,0,0,1-.12-1.22c1.46.15,1.63,1.55,2.34,2.43a88.71,88.71,0,0,0,14.49,18.84c8,8.64,17.87,14.43,28.6,19,1.67.7,3.5,1,5,2.1A.6.6,0,0,1,60,159.42Z" transform="translate(11.97 0.02)"/><path class="cls-7" d="M148,137c-5.64,6.4-12.4,11.34-19.72,15.69-5.35,3.19-11.11,5.29-16.85,7.52a7.26,7.26,0,0,1-1.46.22.6.6,0,0,1,0-.68c3-1.78,6.46-2.41,9.63-3.82a79.49,79.49,0,0,0,16.17-9.48,100.77,100.77,0,0,0,10.54-9.26c.46-.47.92-1,1.69-.81a.43.43,0,0,1,.16.4C148.08,136.91,148,137,148,137Z" transform="translate(11.97 0.02)"/><path class="cls-8" d="M43.9,47,64.61,22.3c.69-.81,1.47-1.56,2.21-2.33.51.12.38.52.38.87-1.57,3.05-4.09,5.39-6.25,8-5.24,6.3-10.34,12.71-15.82,18.82a1.25,1.25,0,0,1-1.07,0A.6.6,0,0,1,43.9,47Z" transform="translate(11.97 0.02)"/><path class="cls-9" d="M3,100.45A48.81,48.81,0,0,1,.63,89,83.73,83.73,0,0,1,.52,69.41c.06-.5,0-1,.45-1.37,1.42,2,.45,4.18.75,6.26v1.36A78.66,78.66,0,0,0,3.58,96.13a9.79,9.79,0,0,1,.11,2.23A2.78,2.78,0,0,1,3,100.45Z" transform="translate(11.97 0.02)"/><path class="cls-10" d="M126.42,52.52,125.91,51c2.58,2.69,5.71.94,8.47.75,6.51-.46,13-1.44,19.46-2.31,2.87-.38,5.7-1,8.55-1.52.29-.22.51-.16.67.17-.39,1.16-1.44,1.27-2.39,1.45-3.8.75-7.62,1.36-11.42,2.08-5.58.62-11.17,1.14-16.74,1.79-1.87.21-3.78.74-5.53-.47Z" transform="translate(11.97 0.02)"/><path class="cls-11" d="M148,137l-.07-.64c.85-2.94,3.47-4.63,5.07-7.05,1-1.49,2.15-2.88,3-4.45l1.12-1.76c1.42-2.67,3.08-5.2,4.38-7.93.28-.59.55-1.2,1.26-1.41a1,1,0,0,1,.67.23A68.73,68.73,0,0,1,148,137Z" transform="translate(11.97 0.02)"/><path class="cls-12" d="M110,160v.47a83.57,83.57,0,0,1-25.49,3.39,38.36,38.36,0,0,1-9.56-.87,2,2,0,0,1,1.73-.5c7.37.18,14.75.89,22.06-.63a59.88,59.88,0,0,0,8.88-1.86A2.76,2.76,0,0,1,110,160Z" transform="translate(11.97 0.02)"/><path class="cls-13" d="M170.36,66c2.1,11.8.78,23.41-1.93,34.94a.48.48,0,0,1-.68-.07.21.21,0,0,1,0-.06c-.7-1.31-.08-2.51.29-3.73q1.53-8.81,2.18-17.73c.29-2.88-.43-5.77-.68-8.66-.13-1.49-.45-3,.11-4.42a.56.56,0,0,1,.74-.27Z" transform="translate(11.97 0.02)"/><path class="cls-14" d="M14.53,40.44l2,.59a14.89,14.89,0,0,0,3,1h0a.47.47,0,0,1,0,.66h0c-2.11,1-3.89-.35-5.7-.94-2-.64-3-.29-3.92,1.65s-1.17,3.84-2.74,5.24a.75.75,0,0,1-.71-.12c-.11-1.87,1.09-3.32,1.61-5l.51-1.47A6.32,6.32,0,0,0,9.14,41c.75-1.79,1.83-2.41,3.65-1.25C13.26,40,14,40,14.53,40.44Z" transform="translate(11.97 0.02)"/><path class="cls-15" d="M1,74.5C1,72.33,1,70.17,1,68c1.1-4,1.2-8.11,2.55-12a.48.48,0,0,1,.68.1l0,0a2.23,2.23,0,0,1,.23,1.22C3.21,63,2.72,68.68,1.77,74.32A.53.53,0,0,1,1,74.5Z" transform="translate(11.97 0.02)"/><path class="cls-16" d="M11.48,119l-1.87-2.52-2-4.46c-.71-1.73-2.07-3.27-1.6-5.36,1.45-.19,1.41,1.14,1.74,1.9,1.29,3,2.62,6.08,4.18,9A1.27,1.27,0,0,1,11.48,119Z" transform="translate(11.97 0.02)"/><path class="cls-17" d="M163.07,48.06l-.68-.1c2.69-.85,3.4-.57,4,1.86s2.09,4.55,2,7.14a.54.54,0,0,1-.66,0c-1.43-1.66-1.51-3.85-2.2-5.78A5.16,5.16,0,0,0,163.07,48.06Z" transform="translate(11.97 0.02)"/><path class="cls-18" d="M167.92,101h.56c0,3.18-1.68,5.79-3,8.53-.64-.83-.09-1.7-.1-2.55a36.54,36.54,0,0,1,1-4C166.73,102.16,167,101.29,167.92,101Z" transform="translate(11.97 0.02)"/><path class="cls-19" d="M43.9,47c0,.16.08.32.11.48a1.2,1.2,0,0,1-.81.9c-2.45.25-4.72-.72-7.07-1.15-.59-.11-1.32-.41-1.14-1.33A2.62,2.62,0,0,1,37,46Z" transform="translate(11.97 0.02)"/><path class="cls-20" d="M6,106.49c-.19,2,1.35,3.55,1.54,5.47a26.32,26.32,0,0,1-4-10.5.52.52,0,0,1,.63,0c1.15,1.37,1.22,3.15,1.81,4.73C6,106.26,6,106.38,6,106.49Z" transform="translate(11.97 0.02)"/><path class="cls-21" d="M14.53,40.44c-.08,0-.18.06-.24,0-2.39-1.22-4.4-1-5.76,1.56,0-1.56.72-3,2.06-3.32A4,4,0,0,1,14.53,40.44Z" transform="translate(11.97 0.02)"/><path class="cls-22" d="M37,46,34.91,46c-1.84,1.07-3.42.47-4.91-.76a.68.68,0,0,1,0-.77C32.48,44.4,34.66,45.63,37,46Z" transform="translate(11.97 0.02)"/><path class="cls-23" d="M165.94,107c-.16.83-.33,1.67-.49,2.51l-1,2.47a8.32,8.32,0,0,1-1,2h-.56c-.84-1.33.24-2.42.44-3.63C164.53,109.44,164.06,107.28,165.94,107Z" transform="translate(11.97 0.02)"/><path class="cls-10" d="M76,8.54v1l-3,3.51c-.47.39-.56,1.37-1.53,1A18.13,18.13,0,0,1,76,8.54Z" transform="translate(11.97 0.02)"/><path class="cls-24" d="M19.48,42.5V42A16.85,16.85,0,0,1,26,43.91l-.25.32A7,7,0,0,1,19.48,42.5Z" transform="translate(11.97 0.02)"/><path class="cls-25" d="M4,56,3.52,56c0-2.94,1.27-5.48,2.45-8a1,1,0,0,1,.34.65c.47,1.61-.77,2.87-.89,4.36C4.89,53.92,4.84,55.13,4,56Z" transform="translate(11.97 0.02)"/><path class="cls-26" d="M170.36,66h-.46a1.33,1.33,0,0,1-.83-.67,7.49,7.49,0,0,1-.72-2.82,7.62,7.62,0,0,1,.2-2.56,1.14,1.14,0,0,1,.48-.54A30.82,30.82,0,0,1,170.36,66Z" transform="translate(11.97 0.02)"/><path class="cls-4" d="M67,21a5.13,5.13,0,0,0-.16-.94c.5-1.46,1.93-2.21,2.66-3.49.29-.25.43-.76,1-.53-.28,2.06-2.8,2.76-3,4.88C67.35,21.14,67.19,21.16,67,21Z" transform="translate(11.97 0.02)"/><path class="cls-27" d="M63.53,159.9c1.27.28,2.67.28,3.57,1.47-2,.22-3.79-.77-5.6-1.43C62.16,159.32,62.85,159.59,63.53,159.9Z" transform="translate(11.97 0.02)"/><path class="cls-28" d="M68,161.29c2-.9,3.73.25,5.57.61a4.28,4.28,0,0,1-3,.08A3.07,3.07,0,0,1,68,161.29Z" transform="translate(11.97 0.02)"/><path class="cls-29" d="M70.48,162l3.07-.07H74c.68.77,2.1-.47,2.55.93l-1.59.1Z" transform="translate(11.97 0.02)"/><path class="cls-30" d="M6.07,48.58A3.44,3.44,0,0,0,6,48c.53-1.56.84-3.21,2-4.45,0,1.83-1.31,3.24-1.54,5A.27.27,0,0,1,6.07,48.58Z" transform="translate(11.97 0.02)"/><path class="cls-24" d="M30,44.52v.53c-1.62.84-3,.78-4-.94l.15-.2Z" transform="translate(11.97 0.02)"/><path class="cls-31" d="M63.53,159.9h-2l-1.48-.52v-.5a2.71,2.71,0,0,1,3,.52Z" transform="translate(11.97 0.02)"/><path class="cls-4" d="M71.48,14,73,13a3.2,3.2,0,0,1-2,2.45.7.7,0,0,1,0-1h0Z" transform="translate(11.97 0.02)"/><path class="cls-32" d="M4,101.49H3.54l-.5-1v-2c.77,0,1,.55,1.28,1.08a2.9,2.9,0,0,1,.15.71A1.41,1.41,0,0,1,4,101.49Z" transform="translate(11.97 0.02)"/><path class="cls-26" d="M168,56.87l.49.09a5,5,0,0,1,.59,2.47l-.14.11c-.88,0-1-.8-1.41-1.25a1.17,1.17,0,0,1-.16-1.29A.57.57,0,0,1,168,56.87Z" transform="translate(11.97 0.02)"/><path class="cls-24" d="M19.48,42a3.32,3.32,0,0,1-3-1A4.55,4.55,0,0,1,19.48,42Z" transform="translate(11.97 0.02)"/><path class="cls-10" d="M71,14.51v1l-.49.47-1,.53A2.42,2.42,0,0,1,71,14.51Z" transform="translate(11.97 0.02)"/><path class="cls-11" d="M163.48,114a3.09,3.09,0,0,1,1-2A1.73,1.73,0,0,1,163.48,114Z" transform="translate(11.97 0.02)"/><path class="cls-33" d="M95,53.08c.7.66,1.58.42,2.39.42h22.48c2.38,0,4.74-1,7.13-.07a.65.65,0,0,1,.66,0c4,3.11,6.9,7.27,10.41,10.84,1.14,1.16,2.37,2.23,3.52,3.39a1.15,1.15,0,0,1-.73.8c-4,1.17-7.9,2.37-11.89,3.42a8.37,8.37,0,0,1-3.18-.53c-5.38-1.61-10-.07-14,3.52a7.26,7.26,0,0,1-2.2,1.61c-1.65.37-3.23,1.14-5,1-.88-.23-1.31-1-1.82-1.61-3.86-5-9.22-6.25-14.77-3.37a5,5,0,0,1-5.12,0c-6.7-3.46-13.72-.53-16.22,6.64A3.75,3.75,0,0,1,65.3,81.4a6.5,6.5,0,0,1-2.51.34H57.42a153.45,153.45,0,0,1-20.89-1.25c-1.42-.78-.74-1.83-.3-2.78,1.88-4.09,5.48-5.57,9.59-6.25,2.31-.38,3.2-1.9,2.44-4.12C47.87,66.22,47,66.15,46,66.2c-5.62.29-10.3,2.34-13.31,7.36-.43,1.33-1.36,2.41-1.79,3.74-.37.84-.49,1.87-1.58,2.2a10.51,10.51,0,0,1-4.18,0C23,78.67,20.6,79.12,18.52,78c-.28-.59.16-.92.46-1.29,7.31-9.28,15.12-18.14,22.65-27.23a5.11,5.11,0,0,1,3.19-1.74c5.28.52,10.47,1.56,15.73,2.13,4.52.5,9,1.11,13.56,1.49a166.8,166.8,0,0,0,18.83,1A2.56,2.56,0,0,1,95,53.08Z" transform="translate(11.97 0.02)"/><path class="cls-34" d="M67,21a.77.77,0,0,0,.49-.08L72,27.52c1.17,1.86,2.82,3.36,3.94,5.26,5.28,6.3,10.77,12.4,16.65,18.15.39.39,1.08.76.84,1.4-.31.82-1.16.41-1.76.44-4.82.19-9.58-.56-14.37-.8-7.11-.35-14.14-1.46-21.19-2.31C52.41,49.2,48.54,49,45,47.51c2.47-3.84,5.71-7.07,8.54-10.63C57.63,31.7,62,26.7,66.22,21.62A5.85,5.85,0,0,1,67,21Z" transform="translate(11.97 0.02)"/><path class="cls-35" d="M45,47.47c3.33.53,6.68.94,10,1.62s6.54.82,9.8,1.22c8.66,1.07,17.4,1.5,26.12,2.18.71,0,1.43,0,2.77,0-6.57-6.72-12.86-12.91-18.15-20,.17-.27.36-.28.57,0,5.21,5.79,10.29,11.69,15.84,17.17C93,50.74,94.57,51.44,95,53.11c-9.74.16-19.39-.84-29.06-1.89-7.35-.79-14.61-2-21.91-3.07-.26.12-.44.06-.53-.22l.52-.41Z" transform="translate(11.97 0.02)"/><path class="cls-3" d="M127.48,53.52a2.64,2.64,0,0,1-.49-.08V53a159.59,159.59,0,0,0,18.76-1.78,33,33,0,0,1,3.73-.22.58.58,0,0,1-.21.78h0a5.55,5.55,0,0,1-2.12.68c-5.06.91-10.21,1.13-15.31,1.74A6.24,6.24,0,0,1,127.48,53.52Z" transform="translate(11.97 0.02)"/><path class="cls-36" d="M76.07,32.46H75.5c-1.11-1.71-2.94-2.92-3.48-5A15.83,15.83,0,0,1,76.07,32.46Z" transform="translate(11.97 0.02)"/><path class="cls-37" d="M114.48,138c-8.66,2.19-17.59,2.65-26.39,3.91a55.27,55.27,0,0,1-7.72.1c-7.89,0-15.78.1-23.67-.05a98,98,0,0,1-15.48-1.68A35,35,0,0,0,37,140c-1.93-.74-4-.6-6-1h0c-.39-.36-.89-.2-1.34-.28-.65-.12-1.07-.36-.4-1a3.7,3.7,0,0,1,2.43-.26,265.82,265.82,0,0,0,27.73,3c2.21.61,4.46.29,6.69.27h9.7c2.39,0,4.78.33,7.15-.26A243.58,243.58,0,0,0,111.83,137a3.52,3.52,0,0,1,2.43.19.54.54,0,0,1,.27.71A.31.31,0,0,1,114.48,138Z" transform="translate(11.97 0.02)"/><path class="cls-38" d="M29,138c.43.81,1.57.2,2,1-.7.12-1.46-.26-2.32.42A65,65,0,0,0,45,151.4c3.92,2,7.94,3.88,12,5.7,2,.89,4.35.75,6,2.39-1-.08-1.91-.77-3-.52a89,89,0,0,1-32.38-19.1c-.59-.56-1.36-1-1.55-1.89A2.1,2.1,0,0,1,29,138Z" transform="translate(11.97 0.02)"/><path class="cls-39" d="M114.48,138v-.5c.52-1.2,1.7-1.24,2.71-1.46a162,162,0,0,0,37.29-12.77c.88-.43,2-1.47,2.9.06a2.09,2.09,0,0,1-.93,1.55c-.67-.09-1.36-.41-2,.1a181.39,181.39,0,0,1-29.85,10.83C121.28,136.7,117.85,137.24,114.48,138Z" transform="translate(11.97 0.02)"/><path class="cls-40" d="M110,160c-3.7.35-7.15,2.06-10.93,2a2.23,2.23,0,0,1-2.1-.09,122,122,0,0,0,14.68-3.41,86.34,86.34,0,0,0,19.13-8.93c1.6-1,2.73-2.7,4.69-3.16a.42.42,0,0,1,.59.08h0c-4.61,4.15-10.1,6.89-15.67,9.4C117,157.42,113.48,158.6,110,160Z" transform="translate(11.97 0.02)"/><path class="cls-41" d="M136,146.49l-.6-.09c1.5-2.23,4-3.28,5.89-5.1a96.52,96.52,0,0,0,12.91-14.62c.19-.27,1.86-1,.22-1.72.65-.34,1.25-1.74,2-.1-2.22,4.29-5.76,7.61-8.54,11.48C144,139.81,140.48,143.66,136,146.49Z" transform="translate(11.97 0.02)"/><path class="cls-42" d="M96.94,161.9,99,162a18.18,18.18,0,0,1-7.31,1c-5.06,0-10.13-.06-15.19-.1-.68-.77-1.91,0-2.55-.93a110.4,110.4,0,0,0,14.32.54A43,43,0,0,0,96.94,161.9Z" transform="translate(11.97 0.02)"/><path class="cls-38" d="M31,139c2.05,0,4.13-.15,6,1A18.51,18.51,0,0,1,31,139Z" transform="translate(11.97 0.02)"/><path class="cls-43" d="M157.39,123.31c-.75-.7-1.41-.11-2,.21A161.49,161.49,0,0,1,116.13,137a15.24,15.24,0,0,0-1.66.52c-3.67.53-7.35,1-11,1.6A138.14,138.14,0,0,1,83,141c-2.29.69-4.7-.22-7,.5H66c-2.12-.73-4.37.2-6.5-.5a156.38,156.38,0,0,1-24.34-2.36c-2-.33-4.09-.43-6.14-.64H26.07c-5-4.22-8.72-9.53-12.26-14.95-.85-1.31-1.6-2.69-2.39-4v-1.49A2,2,0,0,1,13,117c8.31.57,16.64,0,25,.3h1.32a24.24,24.24,0,0,0,5.31-.28,5.31,5.31,0,0,1,1.49-.06c1.15.17,2.31.8,3.42-.13a4.85,4.85,0,0,1,.82-.5,1.71,1.71,0,0,1,.64-.08c.41.06.82.15,1.23.17s1,0,1.54,0a9,9,0,0,0,1.21-.14,4.17,4.17,0,0,1,1.81.28,2.54,2.54,0,0,0,3.6.09h0a10.49,10.49,0,0,1,1-1,1.36,1.36,0,0,1,1.62-.21,2.47,2.47,0,0,1,.58,1.15c.2.49.47.74,1,.26l.33-.51c1.31-2.18,1.63.29,2.64.56.58-1,1-3.14,2.77-1,.35.28.69.56,1.06.8a3.68,3.68,0,0,0,4.31-.09,2.49,2.49,0,0,1,2-.11,5.18,5.18,0,0,1,.65.26c1.81.65,3.62,1.32,4.9-.9.17-1.4-.08-2.82.21-4.22a2.06,2.06,0,0,1,.37-.72c2.16-.79,4.3-1.66,6.67-1.59a1.68,1.68,0,0,1,.87.87c.52,1.75.2,3.53.29,5.3a7.81,7.81,0,0,0,.05,1.08c1.24,1.54,2.56.69,3.86.13a6.71,6.71,0,0,1,.86-.51c1.31-.23,1.67-1.62,2.66-2.23,1,.17.86,1.14,1.21,1.77a2,2,0,0,0,1.53,1.34c1.25.4,2.44.48,3.42-.6,1.13-.32.5-1.52,1.06-2.13a1.11,1.11,0,0,1,.89-.47c1.28.58.56,2.11,1.45,3.16,1.27-1.66.16-3.71,1.18-5.22a1.4,1.4,0,0,1,2.38.19c.67,1.34.37,2.79.45,4.19.1.47-.08,1.33.85.58.08-.2.17-.38.24-.57.33-1.21-.41-3.42.83-3.48,1.58-.07.87,2,1.06,3.19.28,1.8,1.12.77,1.85.44,3,1.92,6.2,1.71,9.47,1a1.05,1.05,0,0,0,1.26-.79,1.43,1.43,0,0,0,0-.36c.09-3.23.17-6.46,0-9.68a.7.7,0,0,0-.73-.65h0c-.78,1.4.09,3.11-.74,4.51-1.55.53-3-.52-4.57-.26-1,.17-2,0-2.68,1a1.4,1.4,0,0,1-1.69-.28,3.26,3.26,0,0,1-.79-1.21c-.94-1.85-1.5-.65-1.68.33-.44,2.27-1.21,2.68-2.81.84a2,2,0,0,0-2.29-.38,8.84,8.84,0,0,0-1.7.74c-.62.37-.54,1.37-1.37,1.55a3.12,3.12,0,0,1-1.44-.72,7.6,7.6,0,0,1-.76-.62,2.84,2.84,0,0,0-3.64,0,3.34,3.34,0,0,1-1.49.8c-1-.31-.83-1.34-1.34-2-.54-.92-1.52-1.71-.94-3a1.71,1.71,0,0,1,.77-.61c6.71-2,13.08-5,19.74-7.21.79-.07,1.58,0,2.37-.07a17.93,17.93,0,0,0,7.91-1.8c1.39-.78,2.66-1.4,3.5.78.52,1.36,1.91,1.06,3,1,1.31-.14,1.38-1.18,1.43-2.21.13-2.21-.23-4.44.24-6.64.68-1.3,2.2-1.5,3.17-2.41a1.24,1.24,0,0,1,.71-.15c5.74,3.12,11.21,6.89,17,10.12,3,1.68,6.29,3,9.1,5.06a38.19,38.19,0,0,1-2.93,7.66c.39,1.23-1.06,2-.75,3.25C161,117,159.74,120.49,157.39,123.31Z" transform="translate(11.97 0.02)"/><path class="cls-34" d="M4,99.5l-.9-1.1c-.8-6.31-2.4-12.52-2-19,.07-1.33.11-2.65.16-4a2.2,2.2,0,0,1,2.07-.6c4.47.86,9,1.6,13.41,2.55a2.92,2.92,0,0,1,1.1.58c1,1.14-.09,1.83-.65,2.54C13.7,84.8,10.3,89.1,6.68,93.18A11.26,11.26,0,0,0,4,99.5Z" transform="translate(11.97 0.02)"/><path class="cls-44" d="M18,78.48a126.2,126.2,0,0,0-16.81-3c-.05-.33-.1-.66-.14-1l.49-.23c1.23-.6,2.45-.09,3.65.11,3.74.64,7.43,1.59,11.21,2a2.9,2.9,0,0,1,2.15,1.07c2,1,4.45.25,6.43,1.44C22.55,80.17,20.27,79.43,18,78.48Z" transform="translate(11.97 0.02)"/><path class="cls-45" d="M149.48,51.48V51c3.61-.68,7.23-1.36,10.84-2a7,7,0,0,0,2.77-.94c1.62-.26,2.39.57,2.81,2,.65,2.27,1.37,4.52,2.07,6.78l-.43.2a.59.59,0,0,1-.73,0c-1.18-1.69-1.15-3.79-1.91-5.63-.54-1.31-1.2-1.85-2.63-1.45-3.28.93-6.71,1.07-10,2A2.6,2.6,0,0,1,149.48,51.48Z" transform="translate(11.97 0.02)"/><path class="cls-46" d="M166.39,103c-3.86-1.29-7.25-3.52-10.76-5.49-5.34-3-10.6-6.13-15.63-9.62.89-1.46,1.81-.38,2.58.07,4.44,2.61,8.72,5.48,13.23,8,3.48,1.94,7.07,3.69,10.4,5.84,0,.39.38-.09.1.08-.12.08-.16,0-.14-.2.14-1.49.71-2.88.89-4.36.08-.71.43-1.48,1.42-1.45a1.46,1.46,0,0,1,0,1.46,8.3,8.3,0,0,0-.6,3.58l-1,2.09a.32.32,0,0,1-.45,0S166.4,103,166.39,103Z" transform="translate(11.97 0.02)"/><path class="cls-47" d="M168.48,97.35V96a2.64,2.64,0,0,1-.65-2.13c1.86-8.93,1.44-17.93.89-26.94a1.26,1.26,0,0,1,.81-1.43L170,66c.22,3.06.3,6.14.67,9.19.69,5.6-.51,11.07-1,16.59Q169.19,94.59,168.48,97.35Z" transform="translate(11.97 0.02)"/><path class="cls-2" d="M18.54,77.5c-5.71-.86-11.39-1.89-17-3.23A69.18,69.18,0,0,1,4,57c.56-1-.13-2.25.75-3.15C5.71,52.11,5.65,50,7,48.46c.87-2,1.79-4.08,2.59-6.15s1.91-2.14,3.74-1.46c2,.73,3.92,1.82,6.17,1.61,2.14.52,4.17,1.5,6.42,1.61a7.33,7.33,0,0,0,4,.94,11.1,11.1,0,0,0,4.92,1c2.73,1.22,5.66,1.5,8.58,1.86l.53.21c-2.79,2-4.53,5-6.73,7.54-6,7-12.06,14-17.66,21.34C19.42,77.28,18.91,77.34,18.54,77.5Z" transform="translate(11.97 0.02)"/><path class="cls-48" d="M7,48.5,5,54a.8.8,0,0,1,0-1.08c-.23-1.6,1.1-2.81,1.08-4.36a2.73,2.73,0,0,1,.41-.1Z" transform="translate(11.97 0.02)"/><path class="cls-49" d="M5,53v1.08c-.78.85-.16,2.17-1,3V56A4,4,0,0,1,5,53Z" transform="translate(11.97 0.02)"/><path class="cls-50" d="M18,78.48c2.37-.41,4.63.75,7,.46l4.37.28c.21.14.45.3.41.56-.63,4.38.91,8.31,2.49,12.23,2.84,6.31,14.06,10.77,22.85,5.29,5-3.11,7.28-7.54,8.18-13,.06-.4,0-.84.09-1.24.14-.6.06-1.54,1-1.47s.79,1,.82,1.62c.12,2.41,0,4.82,0,7.23v6.5c0,2.55.37,2.85,2.92,2.86s2.65-.2,2.67-2.74v-13c0-2.68.37-2.9,3-3.28,2-.29,4-.42,5.93-.66,2.23-.26,2.87.22,2.92,2.53.1,4.66,0,9.32,0,14,0,2.81,2.14,4.15,4.67,3,1.11-.5.91-1.49.92-2.37v-14c0-3.59.78-4.35,4.41-4.49a14.55,14.55,0,0,0,2.7-.4c3.33-.73,4.61.29,4.74,3.77.07,2,0,4,0,6,0,2.91.06,5.83,0,8.74,0,1.88.37,3,2.6,2.91,2.62-.12,3-.36,3-3V92.32a4.3,4.3,0,0,1,.5-2.65c.82-.61,1.28,0,1.56.59a17.14,17.14,0,0,0,9.83,9c.24.09.28.39.23.65-6.68,2.8-13.46,5.36-20.35,7.6h-.34c-1.1-.15-2-1-3.19-.87-2.56-.77-2.76,1.44-3.61,2.84-2.09.62-4.09,1.61-6.35,1.51-1.6.42-3.12-.45-4.7-.32-1.28-.11-2.18,1.56-3.61.78s-2.9-1.22-4.39-.1c-.74.54-1.09,1.43-1.82,2-1.19.63-1.42-.2-1.61-1.06a24.38,24.38,0,0,1-.36-4c-.88.55,0,1.9-1.26,2-.94.07-1.21-.71-1.69-1.24-.66-.46-1.17-.54-1.3.47a4.62,4.62,0,0,1-.07.65c-.33,1-.29,2.5-2.1,1.69a2.55,2.55,0,0,1-.51-.41c-.42-.48-1-.83-1.42-1.29a1.79,1.79,0,0,1-.53-1.18c0-.53.42-1,.27-1.52-1.71.21-1.1,1.8-1.64,2.7a1.52,1.52,0,0,1-.81.71,2.73,2.73,0,0,1-2.45-.6,2.14,2.14,0,0,1-.43-.56c-.31-.47-.49-1.33-1.25-.38-.34.56-.33,1.3-.88,1.76-1.73-.37-3.45-1.73-5.21-.06-1.49.17-2.89-.48-4.37-.51a1.5,1.5,0,0,1-1.57-1.33c-.11-1,.76-1.11,1.42-1.43s1.82-.15,2.6-1.18a7.49,7.49,0,0,0-4.11-.32c-1.14.08-1.06,1.08-1.07,1.91v6.94c0,1,.11,2-.67,2.81-9,0-18.06.55-27.06-.45-2.41-2.83-3.15-6.48-4.76-9.71-.22-.42-.18-1-.7-1.25H6A42.21,42.21,0,0,1,4,100a1.93,1.93,0,0,1,0-.48c-1.65-4.19,2-6,3.92-8.56C11.1,86.67,14.61,82.62,18,78.48Z" transform="translate(11.97 0.02)"/><path class="cls-51" d="M166.39,103h.54l-1,3.94c-1.26.93-.75,3-2.29,3.72Z" transform="translate(11.97 0.02)"/><path class="cls-16" d="M4,100a25.18,25.18,0,0,1,2,6.51c-1.47-1.35-1.2-3.4-2-5C4,101,4,100.48,4,100Z" transform="translate(11.97 0.02)"/><path class="cls-34" d="M169.48,65.49l-.55,1c-.4,1.46-1.61,2.2-2.72,3-2.9,1.79-5.07,4.45-7.73,6.52a5.56,5.56,0,0,1-.54.42,10,10,0,0,0-2.3,2,3.62,3.62,0,0,1-1.86,1.07,3.07,3.07,0,0,1-2.62-1.14c-2.66-2.61-5.32-5.22-7.89-7.91-1.68-1.76-1.48-2.75.8-3.66,3.23-1.27,6.51-2.42,9.72-3.74a10.14,10.14,0,0,0,2.63-1.37,5.46,5.46,0,0,1,1.86-1.06,6,6,0,0,0,2.19-1c2.19-.86,4-2.58,6.5-2.76l.55.24a.85.85,0,0,0,.36,1c.83,1.37.61,3,1.06,4.44Z" transform="translate(11.97 0.02)"/><path class="cls-52" d="M168.94,62.5a13.12,13.12,0,0,1-1.06-4.44c.74.22.47,1.12,1,1.48Z" transform="translate(11.97 0.02)"/><path class="cls-53" d="M168.48,93.92V96c-1.69,1.22-.53,3.3-1.48,4.83-.71,1.15-1.1,1.44-2.36.75-7.61-4.18-15.15-8.45-22.45-13.13-.62-.39-1.2-1.31-2.14-.52V88c-1.6.11-2.26-1.25-3.27-2.06a6.2,6.2,0,0,1-.6-2.39,15.58,15.58,0,0,0-5.58-9.9c-.66-.56-1.55-1-1.65-2a50.6,50.6,0,0,1,12.11-3.56c3.47,2.85,6.37,6.28,9.62,9.35a9.48,9.48,0,0,0,2.64,2.24c3.64,2.79,6.79,6.1,10.13,9.21C165.13,90.47,167.36,91.63,168.48,93.92Z" transform="translate(11.97 0.02)"/><path class="cls-54" d="M65.38,80.92c.93-3.63,2.39-6.89,5.84-8.87a11.62,11.62,0,0,1,12.28-.13c1,.6,1.9,1.21,3.37.4C93.79,68.49,99.59,70,104,76.5a5.08,5.08,0,0,0,.5.54c1.32,1.15,1.48,2.78,1.57,4.32.3,5.38-.2,10.76-.19,16.15,0,2-.86,2.44-3.45,2.48-1.92,0-2.73-.81-2.73-2.65V80.43c-.61-3.13-2.88-4.69-5.71-5.06a5.35,5.35,0,0,0-5.72,3c-.27,6.06,0,12.12-.12,18.18,0,1.51-.22,2.83-2.16,3-2.22.22-3.17-.55-3.2-3-.09-5.4-.06-10.8,0-16.19,0-1.7-.35-3.12-1.85-4.06-2.12-1.12-4.24-1.76-6.38-.08a6.08,6.08,0,0,0-2.29,2.53,18.24,18.24,0,0,0-.92,2.6c-.29,5,0,10.11-.13,15.16,0,3.1-.79,3.69-4,3.35-1.26-.13-2.15-.73-2.15-2C65.11,92.31,64.55,86.6,65.38,80.92Z" transform="translate(11.97 0.02)"/><path class="cls-2" d="M167,56.83a38.62,38.62,0,0,1-6.48,3.2c-.63.43-1.46.44-2,1L157,62c-4.22,2-8.67,3.44-13,5.13-.77.3-1.61.94-2.56.44a2.47,2.47,0,0,1-2.14-1l-11.73-13c7.39,0,14.66-1.23,22-2a95.68,95.68,0,0,0,13-2.32c1.71-.4,2.5,0,2.92,1.49C166,52.7,166.48,54.77,167,56.83Z" transform="translate(11.97 0.02)"/><path class="cls-54" d="M30.48,77.06l1.58-3.53a17.78,17.78,0,0,1,12.83-7.71c1.09-.16,2.51-.56,3.22.67.81,1.42.5,3.07.2,4.61-.14.7-.89.61-1.47.63-5.21.18-9.05,2.41-11.07,7.38-1.63,5.47.29,10.65,4.94,13.32A11.18,11.18,0,0,0,54.4,90.36a12.12,12.12,0,0,0,3-6.46,3.25,3.25,0,0,1,4.77-2.57c1.5.75,1.15,2.35.93,3.58-1,5.29-3.36,9.62-8.22,12.44-7.32,4.24-17.72,2.33-22.07-4.44-2.7-4.2-4.33-8.79-2.6-13.9C30.37,78.37,30.09,77.67,30.48,77.06Z" transform="translate(11.97 0.02)"/><path class="cls-50" d="M36.11,79.87,57.39,81.1A11.14,11.14,0,0,1,48.4,94a11.68,11.68,0,0,1-1.66.17,11.48,11.48,0,0,1-12-10.94c0-.3,0-.61,0-.91A4.13,4.13,0,0,1,35.35,80,.63.63,0,0,1,36.11,79.87Z" transform="translate(11.97 0.02)"/><path class="cls-55" d="M65.38,80.92c.46,5.29.13,10.59.18,15.89,0,1.94.58,2.84,2.72,2.81s2.6-.83,2.58-2.69c-.07-4.47,0-9,0-13.43a28.1,28.1,0,0,1,.27-3,1.75,1.75,0,0,1,1.26-.69c2.88-.08,5.73-.52,8.6-.6a2.84,2.84,0,0,1,2.07.64c.4,5.62.08,11.26.17,16.89,0,2.51.29,2.72,2.61,2.7,1.56,0,2-.69,1.94-2.13,0-6.06-.07-12.11,0-18.16a1.44,1.44,0,0,1,1.41-.82c3,.06,5.83-.8,8.78-.95,1.17.15,1.38,1.27,2,2,.07,5.72.2,11.43.17,17.15,0,2,.46,3,2.77,3s2.58-1.24,2.5-3c-.29-6.51.75-13.08-.84-19.54,1.68-.14,3.21-1.07,5-.88.65,1.36-.51,2.07-1.07,3a5.06,5.06,0,0,0-1,2.69,2.65,2.65,0,0,1-.16.66,13,13,0,0,0,.13,4.86,4.57,4.57,0,0,1,.12.74,1.6,1.6,0,0,1-.53,1.37c-1.09,2.56-.26,5.23-.46,7.84-.09,1.19,0,2.57-1.33,2.92a7.48,7.48,0,0,1-5.11-.15c-.86-.41-.58-1.48-.58-2.29V82.32c0-3.44-.74-4-3.94-3.24a11.67,11.67,0,0,1-2.68.41c-3.69,0-3.86.22-3.86,3.8,0,4.74-.14,9.49,0,14.23.1,2.58-1,3.08-3.26,3-3.32-.14-3.78-.38-3.79-3.16,0-4.66-.07-9.32,0-14,0-2.1-.07-3.37-2.82-2.51a20.58,20.58,0,0,1-5.9.58c-1.47,0-1.83.63-1.81,2,0,4.74-.11,9.49.06,14.22.09,2.47-1,3-3.12,2.88-3.4-.12-3.9-.37-3.92-3,0-5.14,0-10.29-.18-15.46-.38,4.15-1.24,8.19-3.87,11.47-7.81,9.74-21.87,9.18-28.55-.42A3.7,3.7,0,0,1,31.59,92c.8-.07,1.14.56,1.55,1.06,4,5,9.27,7.24,15.54,6.24,7.41-1.18,12.07-5.66,14-13,.44-1.7-.26-3.48.41-5.15Z" transform="translate(11.97 0.02)"/><path class="cls-56" d="M63,81.09C64.21,91,57.25,98.61,47.8,99.77c-5.78.7-10.7-1.69-14.63-6-.55-.61-1.08-1.24-1.62-1.86-1.91-4-3.2-8.16-2.21-12.69.38-.72.75-1.44,1.12-2.16,0,3.29-.89,6.52,0,9.88,1.65,6.34,6.71,10.88,13.76,12A16.42,16.42,0,0,0,60,91.55a16.2,16.2,0,0,0,2.52-7.69c0-1.16.23-2.35-1.64-2.35-1.63,0-2.66.27-2.85,2.2a11.79,11.79,0,0,1-18.54,8.74c-4.11-2.79-5.52-6.87-5-11.7A2.59,2.59,0,0,1,35.35,79a.71.71,0,0,1,.15,1h0A11,11,0,0,0,50.89,92.68c3.77-1.86,6-4.83,6.12-9.17a18.65,18.65,0,0,1,.31-2.45A21.68,21.68,0,0,1,63,81.09Z" transform="translate(11.97 0.02)"/><path class="cls-57" d="M107,87.91a1,1,0,0,0,0-.42,12.16,12.16,0,0,1,0-5.5h0a16,16,0,0,1,1-3l1.5-2.82A21.41,21.41,0,0,1,117,70.91c4.14-1.52,8-.65,11.93.71C134.19,75,136.77,79.82,137,86a3.36,3.36,0,0,1,0,4.06c0,2.55-.09,5.1-.12,7.65,0,1.1-.36,2.08-1.56,2.12-1.4.06-3.53.81-4-.94-.61-2.52-1.74-1.2-2.86-.88a.83.83,0,0,1-1.09,0c1.84-2.82,3.18-3,5.36-.57a1.44,1.44,0,0,0,1.49.65,1.25,1.25,0,0,0,1-1.31c0-5.38.81-10.84-.71-16.11s-7.39-9.35-12.93-9.21a13.84,13.84,0,0,0-12.77,9.79c-.78,2.56-.13,5.1-.59,7.61C107,89.52,107.4,88.22,107,87.91Z" transform="translate(11.97 0.02)"/><path class="cls-58" d="M35.57,80l-.15-1c2-4.77,5.52-7.41,10.69-7.48,2.79,0,1.81-1.93,2-3.3.22-1.67-.66-2.26-2.21-2.09-4,.44-7.8,1.57-10.81,4.48l-3,2.92c2-4.38,5.84-6.29,10.15-7.55a12.72,12.72,0,0,1,2.45-.44c3.92-.35,4.39.17,4.44,4.09,0,1.82-.51,2.43-2.39,2.48-5.6.17-9.14,2.87-10.59,7.76Z" transform="translate(11.97 0.02)"/><path class="cls-59" d="M141.35,67.5a138.28,138.28,0,0,0,13.87-5.28,6.51,6.51,0,0,1,1.7-.29c-3.16,2.19-6.81,3.32-10.38,4.49-4.8,1.57-4.89,1.52-1.31,5.09l6.16,6.17c.71.71,1.38,1.46,2.53,1.33.17.8-.15,1.12-.94,1a161.06,161.06,0,0,1-12-12Z" transform="translate(11.97 0.02)"/><path class="cls-60" d="M60.26,77.12a3.65,3.65,0,1,1,3.79-3.64,3.49,3.49,0,0,1-3.33,3.65A3.53,3.53,0,0,1,60.26,77.12Z" transform="translate(11.97 0.02)"/><path class="cls-61" d="M76,141.45c2.27-1.06,4.67-.25,7-.5C80.72,142,78.32,141.2,76,141.45Z" transform="translate(11.97 0.02)"/><path class="cls-62" d="M59.48,141c2.16.28,4.41-.6,6.5.5C63.84,141.17,61.59,142,59.48,141Z" transform="translate(11.97 0.02)"/><path class="cls-63" d="M38.48,117.9c0-3.33.12-6.67,0-10-.11-2.06.68-2.67,2.58-2.46a27.29,27.29,0,0,0,3,0,1.23,1.23,0,0,1,1.38,1.16c.05.79-.5,1.16-1.24,1.29s-1.46.27-2.18.46c-.49.13-1.36-.1-1.2.83a1,1,0,0,0,1.19.7c1.59-.39,3,.8,4.52.53a1.09,1.09,0,0,1,.3.57c0,.7-.2,1.45.4,2a5.23,5.23,0,0,0,.69.64c.59.48,1.42.64,1.82,1.36a1.34,1.34,0,0,1,0,.69,1.62,1.62,0,0,1-1.85.62c-.37,0-.7-.37-1.09-.14a1.3,1.3,0,0,0,0,.73.61.61,0,0,1-.19.48H45a25.64,25.64,0,0,0-3.37-.42,2.38,2.38,0,0,1-2-1.61,8.34,8.34,0,0,1,0-2.73,2.09,2.09,0,0,1,2.25-1.19,2.33,2.33,0,0,1-2.2-1.1,4.37,4.37,0,0,1,0-2.27c.51-1,1.54-1.18,2.47-1.45a.75.75,0,0,1,.42,0c-1.14,0-2.52-.62-3,1.14.09,2.84-.24,5.69.1,8.53a2.56,2.56,0,0,1-.2,1.61Z" transform="translate(11.97 0.02)"/><path class="cls-64" d="M118,110.46l1.46.46c0,.11.1.21.14.32a9.86,9.86,0,0,0-1.24,4.13,2.33,2.33,0,0,1-.87,1.09c-.07.83-.41,1.49-1.33,1.41s-1.16-.79-1.16-1.6V112.7c-1,1.55.14,3.17-1,4.25-1.18-1.42-.22-3.38-1.21-4.84a4.83,4.83,0,0,0-.61-.8c-.55-.73-1.61-.64-2.17-1.35,2.1-1.45,3,.41,4.28,1.61.23-.89.46-1.7.63-2.53a1.52,1.52,0,0,1,1.49-1.38c1.17,0,1.06,1,1.1,1.81a.57.57,0,0,1-.5.19.81.81,0,0,0-.9.43c-.64,1.6,1,3,.41,4.36a8.82,8.82,0,0,1,.12-1.92A3.72,3.72,0,0,1,118,110.46Z" transform="translate(11.97 0.02)"/><path class="cls-65" d="M126.48,110.46v-4c0-.74-.06-1.71.89-1.78s1.56.84,1.58,1.81c.06,2.4,0,4.79,0,7.19a13.71,13.71,0,0,1-.13,3.2c-.19.72-.58,1.9-1.86,1a.73.73,0,0,1-.16-.88,1.08,1.08,0,0,0,.66-1.38h0c.06-2.37-.14-4.75.12-7.1-.29,2.15,0,4.29-.14,6.42,0,.76.3,1.76-1,2A7,7,0,0,1,126.48,110.46Z" transform="translate(11.97 0.02)"/><path class="cls-66" d="M127,117v1c-1.08-.73-1.75.55-2.75.54-2.48,0-5,.26-6.75-2a1,1,0,0,1,.49-1,1.55,1.55,0,0,1,1.18.4c.29.3.54.65.86.94,1,.81,2.1.51,3.19.22a7.77,7.77,0,0,0,1.46-.54,4.54,4.54,0,0,0,.48-.39,8.28,8.28,0,0,0-.07-4.39,3.75,3.75,0,0,0-.51-.38c-1.23-.4-2.45-1-3.79-.47-.42.16-.84.39-1.29.12h0c-.26-.6-.3-1.31.46-1.33,2.22-.07,4.56-.78,6.56.86.29,2.16-.59,4.41.5,6.5Z" transform="translate(11.97 0.02)"/><path class="cls-67" d="M77.54,117A1.47,1.47,0,0,0,76,117c-1.41-.68-2.94.33-4.36-.3a1.84,1.84,0,0,1-1.06-2.39l.06-.13a1.26,1.26,0,0,1,.54-.53,25.7,25.7,0,0,1,5.22-1,1.54,1.54,0,0,1,.69.34c.63.89.43,2,.7,3A1.55,1.55,0,0,1,77.54,117Z" transform="translate(11.97 0.02)"/><path class="cls-68" d="M107,87.91l.92,1.1c1.89,3,3.52,6.31,6.88,8.1a12.81,12.81,0,0,0,3.67,1.51c.69.21,1.79,0,1.85,1.23h-2.43a16.46,16.46,0,0,1-11-10.41Z" transform="translate(11.97 0.02)"/><path class="cls-69" d="M54,109.47l.1.5c-.06.08-.11.17-.17.26-1.2,1.06.8,1.16.58,1.92.14,1.61.58,3.25-.51,4.72l-2,0a2.35,2.35,0,0,1-.58-1.1,22,22,0,0,1-.07-3.72,6.68,6.68,0,0,0,.42-2.34C52.4,108.85,53,107.39,54,109.47Z" transform="translate(11.97 0.02)"/><path class="cls-70" d="M61,111.44c1.69.85,1.25-1,1.93-1.49a2.34,2.34,0,0,1,.67,1.83,12.72,12.72,0,0,1-.16,3.2,1.3,1.3,0,0,1-.46.62l-1.54.38a1.84,1.84,0,0,1-1.33.43,1.79,1.79,0,0,1-.65-.27c-.67-1.66-2-.47-2.94-.63a1.16,1.16,0,0,1-.11-1.65s0,0,0,0c1.26-.81,2.69-.37,4-.55C61.64,113,60.48,111.92,61,111.44Z" transform="translate(11.97 0.02)"/><path class="cls-64" d="M107,112.46c.79-.42.15-1.59,1-2a2.25,2.25,0,0,1,.5.94c.24,1-.21,2,0,2.93a2.64,2.64,0,0,1,.81-2.43.59.59,0,0,1,.65.06v3.72c0,.91-.15,2-1.27,2.11s-1.19-1.1-1.22-2c0-.65.15-1.35-.48-1.84a1,1,0,0,1-.07-1.41Z" transform="translate(11.97 0.02)"/><path class="cls-71" d="M120.34,99.85c-1.89-.94-4.24-.73-5.85-2.36a1.62,1.62,0,0,1,1.84-.26,15.55,15.55,0,0,0,9.7.45,1.54,1.54,0,0,1,1.4.26l1,0A13.68,13.68,0,0,1,120.34,99.85Z" transform="translate(11.97 0.02)"/><path class="cls-72" d="M113,111.44c1.58,1.62.75,3.65,1,5.51h0a1.39,1.39,0,0,1-2,0l0,0-.06-4.91.21-.23A5,5,0,0,1,113,111.44Z" transform="translate(11.97 0.02)"/><path class="cls-73" d="M54,116.87v-5.43A1.08,1.08,0,0,1,54,110h.18l2.4.49a.56.56,0,0,1,.17.56,2.91,2.91,0,0,1-.49.79,2.6,2.6,0,0,0-.59,2v1.35a1.9,1.9,0,0,1-.57,1.29A.87.87,0,0,1,54,116.87Z" transform="translate(11.97 0.02)"/><path class="cls-74" d="M40.05,115.41a2.47,2.47,0,0,0,2.59,1c.91-.06,1.86-.09,2.32,1-1.76,1-3.65.41-5.49.47l-.4-1C39.58,116.55,39.41,115.72,40.05,115.41Z" transform="translate(11.97 0.02)"/><path class="cls-75" d="M137,90A12.57,12.57,0,0,1,137,86c1.37.13,1.85,1.54,3,2C139.48,89.49,138.13,89.58,137,90Z" transform="translate(11.97 0.02)"/><path class="cls-76" d="M90.42,109.46c.18-3.58.18-3.58,4.06-3.5.78.55.75,1-.14,1.41-.67.27-1.53.19-1.83,1.07a5.21,5.21,0,0,1-.34.56,3,3,0,0,1-1.25,1Z" transform="translate(11.97 0.02)"/><path class="cls-77" d="M70,116.46c-.56-.19-.49-1.08-1.27-1.1-.54.77.19,2.37-1.34,2.49-1.31.1-.67-1.56-1.61-1.89L65,117a1.46,1.46,0,0,1-.2-1.86,1.65,1.65,0,0,1,1.78-.52,1.37,1.37,0,0,1,.6.38,3,3,0,0,1,.33,1,4.12,4.12,0,0,1,.12-1.21,1.3,1.3,0,0,1,.48-.56,1.61,1.61,0,0,1,1.52.1C70.35,115,70.65,115.61,70,116.46Z" transform="translate(11.97 0.02)"/><path class="cls-78" d="M59.48,116,60,116c.32.3.63.61.93.94-2.26,1.62-3.27,1.53-4.52-.4a1.21,1.21,0,0,1,.79-.85A1.93,1.93,0,0,1,59.48,116Z" transform="translate(11.97 0.02)"/><path class="cls-79" d="M72,116.46c.79-.35,1.66.09,2.49-.37a1,1,0,0,1,1.37.32A1,1,0,0,1,76,117c-1.68,1.26-3.36,1.56-5,0C71.17,116.55,71.7,116.75,72,116.46Z" transform="translate(11.97 0.02)"/><path class="cls-80" d="M96,117c-1.69,1.06-3.39,1.85-5.07,0,.47-.25.6-.78.94-1.15a1.93,1.93,0,0,1,.59-.3,3.16,3.16,0,0,1,2.39.24C94.67,116.72,95.75,116.49,96,117Z" transform="translate(11.97 0.02)"/><path class="cls-81" d="M84,116.44c-1.41,1.8-3.76,2-6,.52A2.13,2.13,0,0,1,79,115.79a12.52,12.52,0,0,1,2.87-.06C82.53,116.2,83.3,116.15,84,116.44Z" transform="translate(11.97 0.02)"/><path class="cls-82" d="M90.92,110A1.08,1.08,0,0,1,92,108.94h0l.31.34c.53,2.23.82,4.46-.24,6.65h-.13A.65.65,0,0,1,91,116a.46.46,0,0,1-.07-.07Z" transform="translate(11.97 0.02)"/><path class="cls-83" d="M84,116.44c-.78.35-1.66,1.1-2-.48.14-1.12.2-2.23.25-3.35a3.21,3.21,0,0,1,1.13-1.24.49.49,0,0,1,.59.12Z" transform="translate(11.97 0.02)"/><path class="cls-84" d="M108,111.48v-1l2-.54c1,0,2-.14,2.54,1a1.36,1.36,0,0,1-.52,1L112,112a1.39,1.39,0,0,0-1.93,0h-.51A1.58,1.58,0,0,1,108,111.48Z" transform="translate(11.97 0.02)"/><path class="cls-85" d="M84,111.49h-.47a2.39,2.39,0,0,0-1.41,1.08,1.43,1.43,0,0,1-1.19-.2,13,13,0,0,0-1.45-.6,2.54,2.54,0,0,1-1.05-.75c-.16-.57.28-.77.63-1a10.42,10.42,0,0,1,5.06,1Z" transform="translate(11.97 0.02)"/><path class="cls-86" d="M105.55,116.49c-.87,2.34-2.51,1.52-4.08,1a.68.68,0,0,1-.2-.59,1.78,1.78,0,0,1,.74-1.06c.84-.12,1.7.07,2.55-.09A1.1,1.1,0,0,1,105.55,116.49Z" transform="translate(11.97 0.02)"/><path class="cls-87" d="M101.05,111c1.46-1.48,2.91-1.49,4.37,0-.33.35-.11,1-.7,1.22a6.73,6.73,0,0,1-3.18-.37A1.17,1.17,0,0,1,101.05,111Z" transform="translate(11.97 0.02)"/><path class="cls-88" d="M97.56,107.49,99,110a.44.44,0,0,1,.14.39c0,.14-.06.21-.1.21a2.11,2.11,0,0,1-1.36,0,2.81,2.81,0,0,1-1-.44c-.65-.71-1.41-1.37-1.33-2.48.63-.75,1.33-.46,2-.14Z" transform="translate(11.97 0.02)"/><path class="cls-89" d="M46.48,117a.89.89,0,0,1-.49-1,1.08,1.08,0,0,1,1.49,0c.71,0,1.49.26,2-.48a.43.43,0,0,1,.55-.09,1.49,1.49,0,0,1,.46,1.13L50,117A3.44,3.44,0,0,1,46.48,117Z" transform="translate(11.97 0.02)"/><path class="cls-90" d="M107,112.46V114l-.52.49a2.51,2.51,0,0,1-1.56.65,5.77,5.77,0,0,1-3.28-.41c-.59-1.19.48-1.11,1.06-1.28.84-.25,1.76,0,2.6-.29.55-.41.14-1.2.64-1.63A1.57,1.57,0,0,1,107,112.46Z" transform="translate(11.97 0.02)"/><path class="cls-91" d="M98.93,110.47A1.29,1.29,0,0,1,99,110c.32.66.63,1.32.94,2a1.48,1.48,0,0,1,.45.57,6.32,6.32,0,0,1,.11,2.56,2.42,2.42,0,0,1-.27.69L100,116,99,114l-.28-.26a2.35,2.35,0,0,1-.33-1.09A2.66,2.66,0,0,1,98.93,110.47Z" transform="translate(11.97 0.02)"/><path class="cls-92" d="M65,115v2h0c-.66,1-1.33,1-2,0v-1.52a2,2,0,0,1,1.73-.61Z" transform="translate(11.97 0.02)"/><path class="cls-93" d="M72,116.46a1.13,1.13,0,0,1-1,.52l-1-.52a3.34,3.34,0,0,0-.52-2l.12-.3c.41-.44.85-.68,1.38-.18C71.07,114.91,70.86,116,72,116.46Z" transform="translate(11.97 0.02)"/><path class="cls-94" d="M105,114.47h1.51c-.41.63.9,2-.92,2l-1.08-.49C104.14,115.3,104.57,114.89,105,114.47Z" transform="translate(11.97 0.02)"/><path class="cls-95" d="M57,116l-.6.55a1.29,1.29,0,0,1-1.41-.1v-1.5c.79.08.61-.7.93-1a.53.53,0,0,1,.58.13c0,.54-.12,1.1.45,1.46.14.1.19.21.15.32S57.06,116,57,116Z" transform="translate(11.97 0.02)"/><path class="cls-96" d="M46.48,117H50c-1,1.48-2.25,1-3.52.46A2.36,2.36,0,0,1,46.48,117Z" transform="translate(11.97 0.02)"/><path class="cls-97" d="M105.93,111.5l.55,2a1.61,1.61,0,0,1-1.65-.46.88.88,0,0,1,.11-1c-.14-.47-.44-1,.48-1Z" transform="translate(11.97 0.02)"/><path class="cls-91" d="M99,114c-.34,1.29-.7,2.56-2.44,2.49a.47.47,0,0,1-.16-.38c0-.14,0-.21.06-.22.79-.68,1.08-2,2.46-2Z" transform="translate(11.97 0.02)"/><path class="cls-98" d="M100,112.51l-.09-.57a1.62,1.62,0,0,1,1.11-.94l.42.44a1.36,1.36,0,0,1,.28,1.31.79.79,0,0,1-.53.41C100.69,113.19,100.37,112.83,100,112.51Z" transform="translate(11.97 0.02)"/><path class="cls-99" d="M50.55,116.5a1.09,1.09,0,0,1-.56-1c-.42-.63-.19-1,.47-1.23a.92.92,0,0,1,.74.31,1.47,1.47,0,0,1-.24,1.91Z" transform="translate(11.97 0.02)"/><path class="cls-64" d="M112,117h2a.91.91,0,0,1-1.11,1A1,1,0,0,1,112,117Z" transform="translate(11.97 0.02)"/><path class="cls-100" d="M118,110.46a2.87,2.87,0,0,1-1,2,1,1,0,0,1-.36-.53,4.75,4.75,0,0,1,.34-2.47h.5Z" transform="translate(11.97 0.02)"/><path class="cls-101" d="M96.48,116a1.16,1.16,0,0,0,.08.52L96,117c-.53-.15-1.64.29-1-1a1.1,1.1,0,0,1,.58-.36,1.55,1.55,0,0,1,.67.11Z" transform="translate(11.97 0.02)"/><path class="cls-102" d="M51,116.46v-2c1.37-.24.4,1.19,1,1.48v1A1,1,0,0,1,51,116.46Z" transform="translate(11.97 0.02)"/><path class="cls-103" d="M79,116a.88.88,0,0,1-.74,1h-.71c0-.31-.07-.62-.1-.94a.9.9,0,0,1,.59-.69A.88.88,0,0,1,79,116Z" transform="translate(11.97 0.02)"/><path class="cls-77" d="M63,117a1.62,1.62,0,0,0,2,0,.91.91,0,0,1-.87,1,.94.94,0,0,1-1.12-.7A1,1,0,0,1,63,117Z" transform="translate(11.97 0.02)"/><path class="cls-91" d="M101.48,117v.48a1.46,1.46,0,0,1-1.52-1.4V116l.06,0C100.9,115.73,101.26,116.24,101.48,117Z" transform="translate(11.97 0.02)"/><path class="cls-104" d="M91,116h1c0,.71.23,1.53-1,1C91,116.63,91,116.29,91,116Z" transform="translate(11.97 0.02)"/><path class="cls-105" d="M60.94,117a.81.81,0,0,1-.93-.69.53.53,0,0,1,0-.25h1.45A5.65,5.65,0,0,0,60.94,117Z" transform="translate(11.97 0.02)"/><path class="cls-43" d="M153,80l.94-1,1.54-1c.92-.56,1.58-1.44,2.5-2h0c2.84-2.13,5.37-4.62,8-7l3-2.55c1,2.93.76,6,.92,9a67.15,67.15,0,0,1-1.4,18.49c-4.47-3.55-8.5-7.59-12.72-11.43Z" transform="translate(11.97 0.02)"/><path class="cls-106" d="M66.81,115l-1.82.08V115c-.82-.89-.6-2-.55-3a8,8,0,0,0,.11-2.53,1.27,1.27,0,0,1,.48-.95c.67.28.31,1.59,1.45,1.42.53-.55-.32-.81-.3-1.25a1.38,1.38,0,0,1,1.25-1.5h0a1,1,0,0,1,1,1,1,1,0,0,1-.09.45c-.53,1.34.18,2.58.08,3.88-.06.85.52.6,1,.48a1.11,1.11,0,0,1,.06,1.45l-.09,0H68.09C67,112.84,67.48,115.53,66.81,115Z" transform="translate(11.97 0.02)"/><path class="cls-107" d="M52,116l-1-1.48a3.08,3.08,0,0,1-.43,0c-1-.63-2.7-.56-2.72-2.35.11-.6,1.31-.46,1-1.17-.22-.48-.89-.07-1.35.12l-.32.1a.64.64,0,0,1-.7-.22v-.5c1.91-2.26,3.42-.61,5,.5.36.24.17.75.49,1C52,113.3,52,114.63,52,116Z" transform="translate(11.97 0.02)"/><path class="cls-108" d="M71,111c1.67-1.55,3.34-1.27,5,0a1,1,0,0,1,.18,1.1c-1.24,1.39-2.62.66-4,.26A2.39,2.39,0,0,1,71,111Z" transform="translate(11.97 0.02)"/><path class="cls-109" d="M56.48,111v-.48L57,110a1.91,1.91,0,0,1,2.5,0c.49.32,1.15.43,1.41,1.06-.59.33-.57,1-.88,1.53a19.6,19.6,0,0,1-2.86-.35C56.8,111.86,56.92,111.24,56.48,111Z" transform="translate(11.97 0.02)"/><path class="cls-110" d="M71,111a1,1,0,0,1,1,1c.25.9-.54,1.34-.89,2h-.14l-1.41.43,0-1.43C69.89,112.22,70.07,111.33,71,111Z" transform="translate(11.97 0.02)"/><path class="cls-111" d="M59.48,110H57c.19-3.13.8-3.75,3-3-.46.6-1.78.78-1,2Z" transform="translate(11.97 0.02)"/><path class="cls-112" d="M97.48,107.46c-.66.1-1.44-.24-1.93.52a1.19,1.19,0,0,1-.93.32c-.89-.37-1.69.26-2.54.23-.18-1.18.37-1.65,1.51-1.57.7,0,1.4.06.94-1A5,5,0,0,1,97.48,107.46Z" transform="translate(11.97 0.02)"/><path class="cls-113" d="M60,112.48c0-.71-.59-1.76.94-1.48a3.17,3.17,0,0,1,.12.44c.09.84,1.74,1.41.45,2.5-.45-.44-1.18-.39-1.6-.9A.47.47,0,0,1,60,112.48Z" transform="translate(11.97 0.02)"/><path class="cls-114" d="M65,109.5c.07.66.5,1.31,0,2a.44.44,0,0,1-.49.14c-.58-.47-.68.2-1,.43A.38.38,0,0,1,63,112a19.19,19.19,0,0,0-.07-2,1.35,1.35,0,0,0,0-.49C63.67,107.49,64.32,108.51,65,109.5Z" transform="translate(11.97 0.02)"/><path class="cls-115" d="M59,109c-.61-.06-1.13-.27-.93-1,.26-1,1.07-1,1.89-1C60.09,107.88,59.25,108.29,59,109Z" transform="translate(11.97 0.02)"/><path class="cls-70" d="M65,109.5c-.66-.61-1.32-1-2,0-.45-.36-.63-.9-.16-1.21a1.6,1.6,0,0,1,2.2.21Z" transform="translate(11.97 0.02)"/><path class="cls-116" d="M76,112v-1c1.39.85,1.81-1.3,3-1l-.59.94a3.43,3.43,0,0,1-1,1.75,1,1,0,0,1-.59.31h-.31A1.26,1.26,0,0,1,76,112Z" transform="translate(11.97 0.02)"/><path class="cls-117" d="M54,109.47c-.66-1-1.31-.51-2,0-.16-.1-.22-.21-.17-.33s.09-.19.14-.19a.93.93,0,0,1,.83-1,1,1,0,0,1,.3,0C54.06,108.11,54,108.82,54,109.47Z" transform="translate(11.97 0.02)"/><path class="cls-102" d="M52,109v3a1.08,1.08,0,0,1-.49-1C51.57,110.27,51.28,109.49,52,109Z" transform="translate(11.97 0.02)"/><path class="cls-118" d="M166,69a26.44,26.44,0,0,1-8,7A42.36,42.36,0,0,1,166,69Z" transform="translate(11.97 0.02)"/><path class="cls-118" d="M158,76a3.52,3.52,0,0,1-2.5,2A3.45,3.45,0,0,1,158,76Z" transform="translate(11.97 0.02)"/><path class="cls-119" d="M158.48,61a1.69,1.69,0,0,1,2-1A1.86,1.86,0,0,1,158.48,61Z" transform="translate(11.97 0.02)"/><path class="cls-120" d="M82.74,80c-3.88,0-7.73.82-11.62.61A2.3,2.3,0,0,1,72,78.51a10.44,10.44,0,0,1,3.7-2.92c1.67-1,3.24-.14,4.84.26C82,76.75,83.82,77.57,82.74,80Z" transform="translate(11.97 0.02)"/><path class="cls-121" d="M82.74,80c.53-2-1.09-2.86-2.27-3.92-.16-.12-.22-.24-.16-.35s.12-.17.18-.17a3.87,3.87,0,0,1,3,4.2c-.07,5.63,0,11.27,0,16.9,0,1.56.18,2.46,2.11,2.43s2-.92,2-2.34V80.08c0-.88-.3-1.85.45-2.61a1.24,1.24,0,0,1,.48.93,2.65,2.65,0,0,1-.15.69c-.54,6-.17,12.11-.19,18.16,0,2.11-.76,2.71-2.78,2.68S83,99.16,83,97.4C82.87,91.55,83.19,85.74,82.74,80Z" transform="translate(11.97 0.02)"/><path class="cls-122" d="M88,78.59A5.66,5.66,0,0,0,88,77.43c4-4.41,10.21-3.38,12,2l-1.67-1.57C94.68,75.51,91.28,76,88,78.59Z" transform="translate(11.97 0.02)"/><path class="cls-122" d="M80.48,75.5V76c-1.66-.09-3.31-.83-5,0A1.22,1.22,0,0,1,74,76C76,74.17,78.22,74.27,80.48,75.5Z" transform="translate(11.97 0.02)"/><path class="cls-123" d="M74,76h1.48l-3.54,2.48C72,77.12,73.32,76.83,74,76Z" transform="translate(11.97 0.02)"/><path class="cls-124" d="M88,78.59c2.69-3.71,7.4-4,10.23-.73a36.32,36.32,0,0,1-10,1.19Z" transform="translate(11.97 0.02)"/><path class="cls-68" d="M107,82v5.5A6.18,6.18,0,0,1,107,82Z" transform="translate(11.97 0.02)"/><path class="cls-68" d="M108,79a5.14,5.14,0,0,1-1,3A3.14,3.14,0,0,1,108,79Z" transform="translate(11.97 0.02)"/><path class="cls-54" d="M127.48,98c-4.38,1.78-8.67,1-12.94-.45-3.29-2-5.71-4.62-6.55-8.48A15.7,15.7,0,0,1,109.6,77.8a13.76,13.76,0,0,1,12.13-7c5.49-.1,9.8,2.75,12.61,7.57A13.52,13.52,0,0,1,136,85c.07,3.82,0,7.65,0,11.47,0,1.05.25,2.32-1.32,2.51-1.29.16-2.47.15-2.72-1.68-.18-1.33-1.09-1.51-2.19-.74A18.27,18.27,0,0,0,127.48,98Z" transform="translate(11.97 0.02)"/><path class="cls-125" d="M60.35,76.49a2.9,2.9,0,0,1-3.14-2.64,1.48,1.48,0,0,1,0-.21,2.8,2.8,0,0,1,2.41-3.15,2.91,2.91,0,0,1,.59,0,3.1,3.1,0,0,1,3.24,3v0A3.24,3.24,0,0,1,60.35,76.49Z" transform="translate(11.97 0.02)"/><path class="cls-126" d="M40.05,115.41c-.09.66.08,1.49-1,1.53,0-3.33,0-6.65,0-10,1.5-1.09,3-1.33,4.48,0h-1c-.73.57-2-.27-2.47,1v2.34a2.05,2.05,0,0,1,0,2.16Z" transform="translate(11.97 0.02)"/><path class="cls-127" d="M48.06,112c.31,1.32,2.11,1.13,2.46,2.42a1.07,1.07,0,0,0-.53,1h-.45a2.63,2.63,0,0,0-.1-.47c-.49-.64-1.28-.68-1.94-1l-.54-.52a2.27,2.27,0,0,1,0-2.52h0C48.16,110.54,48.34,111.05,48.06,112Z" transform="translate(11.97 0.02)"/><path class="cls-128" d="M40,112.52v-2.16c1.18,1.1,2.88.07,4.33,1.06C43,112.56,41.21,111.41,40,112.52Z" transform="translate(11.97 0.02)"/><path class="cls-129" d="M43.48,107A4.69,4.69,0,0,0,39,107c.84-1,4.82-1.58,5.37-.69S43.92,106.87,43.48,107Z" transform="translate(11.97 0.02)"/><path class="cls-130" d="M47,111v2.52c-1.24-.64-1-1.54-.47-2.51Z" transform="translate(11.97 0.02)"/><path class="cls-129" d="M40.05,108c.23-1.76,1.58-.85,2.47-1Z" transform="translate(11.97 0.02)"/><path class="cls-130" d="M47.48,116,46,116C46.48,114.36,47,115.19,47.48,116Z" transform="translate(11.97 0.02)"/><path class="cls-130" d="M47.48,114c.85-.06,1.63,0,1.94,1A3.08,3.08,0,0,1,47.48,114Z" transform="translate(11.97 0.02)"/><path class="cls-131" d="M118.92,116l-1-.57c-.14-1.71-.06-3.35,1.51-4.49l1-.53c.66-.28,1.49-.51,1.92.09s-.42.84-.79,1.18a4.32,4.32,0,0,0-1.86,3.71A1.08,1.08,0,0,1,118.92,116Z" transform="translate(11.97 0.02)"/><path class="cls-132" d="M116.92,112a1.34,1.34,0,0,0,.07.52c-.17,1.39.24,2.82-.29,4.22-1-1.47-1.51-6.22-.74-7.25C116.59,110.16,116.17,111.28,116.92,112Z" transform="translate(11.97 0.02)"/><path class="cls-133" d="M116.92,112c-1.7-.31-1-1.52-1-2.51.13-.26.22-.7.39-.73.54-.11.51.41.62.76A3.9,3.9,0,0,1,116.92,112Z" transform="translate(11.97 0.02)"/><path class="cls-134" d="M112,112a1,1,0,0,1,.52-1l.49.53C113,112.24,112.6,112.31,112,112Z" transform="translate(11.97 0.02)"/><path class="cls-135" d="M127,117v-9.66c0-.44-.79-1.94.94-1.32a43.82,43.82,0,0,0,0,10.49c0,.89-.47.73-1,.5Z" transform="translate(11.97 0.02)"/><path class="cls-136" d="M128,116.47A23,23,0,0,1,128,106C128,109.48,128,113,128,116.47Z" transform="translate(11.97 0.02)"/><path class="cls-137" d="M123.6,117.27c-1.45.85-2.87,1.34-4.14-.3.25-.44.23-1,.8-1.28,1.11,0,2.25-.29,3.33.22A1.17,1.17,0,0,1,123.6,117.27Z" transform="translate(11.97 0.02)"/><path class="cls-138" d="M121,111.43l1.25-.9-1.77-.09c1.66-1.14,3.08.1,4.59.49a1.73,1.73,0,0,0-.19.28,6.28,6.28,0,0,1-1.68,1.06A2.37,2.37,0,0,1,121,111.43Z" transform="translate(11.97 0.02)"/><path class="cls-139" d="M125.48,111a7.8,7.8,0,0,1,0,6A6.11,6.11,0,0,1,125.48,111Z" transform="translate(11.97 0.02)"/><path class="cls-140" d="M125.48,111v6l-.58,0a2.25,2.25,0,0,1-.58-1.62c.09-1.42-.38-2.92.53-4.24L125,111Z" transform="translate(11.97 0.02)"/><path class="cls-141" d="M124.92,115.46v1.45l-1.29.36c0-.44-.1-.88-.14-1.32a1,1,0,0,1,.58-.72A.81.81,0,0,1,124.92,115.46Z" transform="translate(11.97 0.02)"/><path class="cls-142" d="M120,115.92c.2.55.35,1.07-.54,1a1,1,0,0,1-.54-.94l.57-.57C119.91,115.33,120.05,115.52,120,115.92Z" transform="translate(11.97 0.02)"/><path class="cls-143" d="M76,112a1,1,0,0,1,.5,1c-1.77.42-3.48,1.17-5.36,1-.33-.94.37-1.42.89-2C73.32,111.57,74.65,113.06,76,112Z" transform="translate(11.97 0.02)"/><path class="cls-144" d="M76.84,113l.16-.51a.86.86,0,0,1,1.1-.09,2.1,2.1,0,0,1,.46,1.12,2.27,2.27,0,0,1-.53,1.9l-.55.58C76.57,115.13,77.15,114,76.84,113Z" transform="translate(11.97 0.02)"/><path class="cls-145" d="M53.92,110v1.46c-.55.24-1.24.83-1.42-.33S53.12,110,53.92,110Z" transform="translate(11.97 0.02)"/><path class="cls-146" d="M64.48,111.46H65v3.48a2.8,2.8,0,0,1-2,.48v-3.5a3.84,3.84,0,0,0,.48,0C63.78,111.65,63.94,111.14,64.48,111.46Z" transform="translate(11.97 0.02)"/><path class="cls-147" d="M60,113a1.57,1.57,0,0,1,1.53,1l-5,.07H56c-.2-.45-.42-.85-1-.52a1.69,1.69,0,0,1,1-2c.51.21.77.8,1.34.92A3.46,3.46,0,0,1,60,113Z" transform="translate(11.97 0.02)"/><path class="cls-148" d="M57,116v-.5c.31-1.51,1.5-1.06,2.35-.91s.32.87.17,1.36Z" transform="translate(11.97 0.02)"/><path class="cls-149" d="M108,111.48c.55,0,1.12-.08,1.48.49-.74,1.48-.17,3.22-1,5.29C107.71,115,108.07,113.22,108,111.48Z" transform="translate(11.97 0.02)"/><path class="cls-150" d="M55,113.48c.63-.38,1-.27,1,.52-.17.5.17,1.56-1,.93Z" transform="translate(11.97 0.02)"/><path class="cls-151" d="M57,112.46a.91.91,0,0,1-1-.81.61.61,0,0,1,0-.19l.52-.48c.88,0,.77.51.58,1.07a.29.29,0,0,1-.09.4Z" transform="translate(11.97 0.02)"/><path class="cls-50" d="M92,108.53c.67-.87,1.36-1.64,2.47-.56-.33,1.44-1.2,1.61-2.39,1H92A1.6,1.6,0,0,0,92,108.53Z" transform="translate(11.97 0.02)"/><path class="cls-152" d="M66.81,115c.13-1.25.25-2.5.44-4.44,1.07,1.7.56,2.9.86,4a2.46,2.46,0,0,1-.13.5.74.74,0,0,1-1,0Z" transform="translate(11.97 0.02)"/><path class="cls-153" d="M67,115h1c0,.71.24,1.48-.57,2.19C66.71,116.53,67,115.71,67,115Z" transform="translate(11.97 0.02)"/><path class="cls-154" d="M92.11,109a2.91,2.91,0,0,0,2.39-1h1c.88.37,1.1,1.24,1.48,2,1.29.73,1.16,1.9,1,3.1a5.17,5.17,0,0,1-.6,1.36,4.46,4.46,0,0,1-1.9,1.54,3.53,3.53,0,0,0-.46,0l-2.92,0C92.08,113.61,92.1,111.29,92.11,109Z" transform="translate(11.97 0.02)"/><path class="cls-155" d="M78,115.41l.06-2c.56-1.29,1.71-1.45,2.91-1.48l1,.45a.25.25,0,0,1,.36,0,.36.36,0,0,1,.07.1c.43,1.22.89,2.45-.44,3.46-1,.2-2,.81-3,0Z" transform="translate(11.97 0.02)"/><path class="cls-156" d="M82.42,112.5a2.07,2.07,0,0,1-.43-.1c.15-.88.35-1.67,1.49-.92C83.48,112.17,83.06,112.46,82.42,112.5Z" transform="translate(11.97 0.02)"/><path class="cls-157" d="M81,112l-2.91,1.48v-.95c.15-.76.5-1.25,1.39-1C80,111.51,80.62,111.38,81,112Z" transform="translate(11.97 0.02)"/><path class="cls-158" d="M79.48,111.45l-1.4,1H77a3,3,0,0,1,1.42-1.55A1.2,1.2,0,0,1,79.48,111.45Z" transform="translate(11.97 0.02)"/><path class="cls-159" d="M105,114.47c-.16.5-.33,1-.49,1.5-.82,1-1.68.33-2.53,0-.54.18-.88-.11-1.18-.51a1.14,1.14,0,0,1,.06-1,.51.51,0,0,1,.62-.07Z" transform="translate(11.97 0.02)"/><path class="cls-160" d="M101,115.46l1,.56a1,1,0,0,1-.49,1L100,116a1.77,1.77,0,0,1,0-.51.59.59,0,0,1,.83-.08Z" transform="translate(11.97 0.02)"/><path class="cls-161" d="M101.48,113v-1.49c1.11.46,2.4-.15,3.47.55v1A2.94,2.94,0,0,1,101.48,113Z" transform="translate(11.97 0.02)"/><path class="cls-162" d="M98.93,110.47V113c-.33.39-.6,1.07-1.17.22.06-1.07-.25-2.16.18-3.22Z" transform="translate(11.97 0.02)"/><path class="cls-91" d="M97.94,110v3.49a.37.37,0,0,1-.5,0c0-1.18.19-2.38-.49-3.46Z" transform="translate(11.97 0.02)"/><path class="cls-163" d="M101.48,113h3.44l1.52.51c-1.49,1.28-3.53-.27-5,1a2.11,2.11,0,0,0-.45.08,1,1,0,0,1-.16-1.41L101,113Z" transform="translate(11.97 0.02)"/><path class="cls-164" d="M97.48,113.43H98l1-.49v1c-1,.43-1,2.16-2.44,2h0c-.29-.65.26-1,.5-1.5A1.09,1.09,0,0,1,97.48,113.43Z" transform="translate(11.97 0.02)"/><path class="cls-165" d="M101,113v2.56h-.9v-2.92A.93.93,0,0,1,101,113Z" transform="translate(11.97 0.02)"/><path class="cls-166" d="M97,114.46l-.5,1.52h-1Z" transform="translate(11.97 0.02)"/><path class="cls-167" d="M48.06,112c-.07-.63-.34-1.06-1.05-1a2.67,2.67,0,0,1,.25-.43,1.57,1.57,0,0,1,2.21-.27h0c.39.26.94.61.61,1.17C49.64,112.25,48.74,111.84,48.06,112Z" transform="translate(11.97 0.02)"/><path class="cls-168" d="M57,112.46l.09-.45a2.3,2.3,0,0,1,2.93.47,1.85,1.85,0,0,1,0,.47C59,112.8,57.84,113.35,57,112.46Z" transform="translate(11.97 0.02)"/><path class="cls-145" d="M64.48,111.46l-1,.47c.12-.58-.4-1.51.5-1.64C64.63,110.19,64.42,111,64.48,111.46Z" transform="translate(11.97 0.02)"/><path class="cls-169" d="M131,81a10,10,0,0,1-3,12.19c-3.23,2.33-9.57,2.91-12.56-.6a1,1,0,0,1,.69-.34c1.92.4,3.71,1.24,5.78,1.17,5-.15,8.34-3.45,8.41-8.44a20.06,20.06,0,0,1,.1-3A1.54,1.54,0,0,1,131,81Z" transform="translate(11.97 0.02)"/><path class="cls-170" d="M116,92.45l-.6.07a9.68,9.68,0,0,1-3.21-11c1.67-4.28,6.26-7.24,10.26-6.54a.47.47,0,0,1,0,.66h0a6.73,6.73,0,0,1-2.57.89,8.6,8.6,0,0,0-5,13.58C115.37,90.81,116.23,91.38,116,92.45Z" transform="translate(11.97 0.02)"/><path class="cls-171" d="M122.48,75.51V75c4,.31,7,2.15,8.54,6a5,5,0,0,1-.08,1.09.56.56,0,0,1-.63,0,5.33,5.33,0,0,1-.93-1.43,7.6,7.6,0,0,0-6.45-4.23C122.59,76.16,122.34,76,122.48,75.51Z" transform="translate(11.97 0.02)"/><path class="cls-172" d="M120,115.92l-.52-.46c-.73-1.8.19-3,1.48-4l2.52.52c1.52,1,1.16,2.2.53,3.48l-.53.52A3.88,3.88,0,0,1,120,115.92Z" transform="translate(11.97 0.02)"/><path class="cls-173" d="M124,115.46c0-1.18.32-2.42-.53-3.48,0-.94.65-1,1.4-.93,0,1.47,0,2.94.08,4.41Z" transform="translate(11.97 0.02)"/><path class="cls-50" d="M130.48,81.9l.45.12c.37,3.75.19,7.32-3.1,9.94C124,95,120.05,94.63,116,92.45c-4.13-4.76-4.7-8.88-1.77-13,2-2.81,4.9-3.8,8.2-3.94L123,76a24.92,24.92,0,0,1,6.06,4.11C129.58,80.67,129.93,81.36,130.48,81.9Z" transform="translate(11.97 0.02)"/><path class="cls-174" d="M128.94,80.51c-2-1.52-4.21-2.67-5.92-4.53a6.84,6.84,0,0,1,6.85,4.5.62.62,0,0,1-.86.1A.46.46,0,0,1,128.94,80.51Z" transform="translate(11.97 0.02)"/><path class="cls-175" d="M128.94,80.51h.93c.2.47.4.95.61,1.42A2.82,2.82,0,0,1,128.94,80.51Z" transform="translate(11.97 0.02)"/><g class="cls-176"><path class="cls-177" d="M88.48,0q57.21,0,114.45,0c1.71,0,2,.34,2,2.05q-.09,81.95,0,163.9c0,1.71-.34,2-2,2q-107.44-.09-214.9,0V2c0-1.71.33-2,2-2Q36.5.09,83,0c.35,1-.3,1.6-.8,2.18-1.94,2.24-3.67,4.64-5.78,6.72-1.85,1.37-3,3.37-4.51,5.05a7.73,7.73,0,0,1-.62.77,4.88,4.88,0,0,0-1.42,2.08c-.68,1.31-2,2.15-2.66,3.45C60.57,28.1,54.06,36.06,47.47,43.94a11.71,11.71,0,0,1-3.8,3.51A20.65,20.65,0,0,1,37,46.52c-2.35-.21-4.54-1.29-6.91-1.36-1.3-.1-2.54-.5-3.82-.7a50.61,50.61,0,0,0-6.25-1.91c-.23-.06-.46-.13-.68-.21a10.48,10.48,0,0,0-3-.79,4.69,4.69,0,0,1-1.94-.77A7.37,7.37,0,0,0,13.17,40c-2.72-1.19-3.13-1-4.06,2.05a5.09,5.09,0,0,1-.66,1.64,21.86,21.86,0,0,0-2,4.57c-1,2.59-2.12,5.13-2.36,7.94-1.13,4-1.27,8.11-2.51,12-.38,5.28-1,10.49-.53,15.85A115.5,115.5,0,0,0,3.48,99.78a4.71,4.71,0,0,1,.6,1.49,32.1,32.1,0,0,0,3.86,10.27A17.51,17.51,0,0,1,10,116.29c.93,3.18,2.91,5.8,4.7,8.48A86.19,86.19,0,0,0,58.07,158.5a10.37,10.37,0,0,0,2,.37,5.63,5.63,0,0,1,1.73.59A17.26,17.26,0,0,0,67,160.8a8.39,8.39,0,0,1,1.11.13c.86.25,1.73.4,2.6.6a44.28,44.28,0,0,1,4.68,1,86.3,86.3,0,0,0,34-2.66,61.86,61.86,0,0,0,16.62-6.5,82.45,82.45,0,0,0,21.64-16.63,73,73,0,0,0,14.56-21.11,10.92,10.92,0,0,1,.71-1.3,4.28,4.28,0,0,1,.37-.57,3.74,3.74,0,0,0,.77-2.13,6.85,6.85,0,0,1,1.22-2.57c.92-2.85,2.66-5.43,2.64-8.56,2.63-11.25,3.87-22.58,1.93-34.08a61,61,0,0,0-1.21-6.72c-.21-.88-.37-1.77-.62-2.63-.26-2.67-1.52-5-2.32-7.55-.64-2-2.18-1.26-3.53-.91a187,187,0,0,1-25.46,3.67,48.74,48.74,0,0,0-6.39.67,4.41,4.41,0,0,1-4.14-1c-3.32-2.81-5.8-6.36-8.51-9.7A345.48,345.48,0,0,1,89.43,2.78C88.89,1.91,88,1.17,88.48,0Z" transform="translate(11.97 0.02)"/></g></g></g></svg>