<svg xmlns="http://www.w3.org/2000/svg" viewBox="0 0 297.64 297.64"><defs><style>.cls-1{fill:#a9a9aa;}</style></defs><title>Recurso 4</title><g id="Capa_2" data-name="Capa 2"><g id="Capa_1-2" data-name="Capa 1"><path class="cls-1" d="M288.49,171.92c-4.68-2.88-9.56-5.67-14.44-8.46a130.31,130.31,0,0,0,0-29.28c4.88-2.79,9.76-5.68,14.44-8.47a18.92,18.92,0,0,0,7.66-23.3h0L285.8,77.51a18.84,18.84,0,0,0-21.91-11.05c-5.37,1.29-10.75,2.69-16.23,4.18A126.79,126.79,0,0,0,227,49.93c1.5-5.38,2.89-10.86,4.19-16.24a18.88,18.88,0,0,0-11.06-21.9L195.19,1.43a18.85,18.85,0,0,0-23.3,7.67c-2.79,4.68-5.67,9.56-8.46,14.44a130.31,130.31,0,0,0-29.28,0c-2.78-4.88-5.67-9.76-8.46-14.44a18.92,18.92,0,0,0-23.3-7.67L77.5,11.79a18.83,18.83,0,0,0-11,21.9c1.29,5.38,2.79,10.76,4.18,16.24A126.79,126.79,0,0,0,49.92,70.64c-5.48-1.49-10.85-2.89-16.23-4.18A18.9,18.9,0,0,0,11.78,77.51L1.43,102.41a18.84,18.84,0,0,0,7.67,23.3c4.67,2.79,9.55,5.68,14.43,8.47a131.5,131.5,0,0,0,0,29.28c-4.88,2.79-9.66,5.67-14.43,8.46a18.89,18.89,0,0,0-7.67,23.31l10.35,24.89a18.85,18.85,0,0,0,21.91,11.06c5.28-1.3,10.75-2.69,16.23-4.18a127.19,127.19,0,0,0,20.71,20.71c-1.49,5.48-2.89,10.86-4.18,16.23a18.89,18.89,0,0,0,11,21.91l24.89,10.36a18,18,0,0,0,7.17,1.39,18.92,18.92,0,0,0,16.23-9.06c2.79-4.68,5.68-9.56,8.46-14.44a130.31,130.31,0,0,0,29.28,0c2.79,4.88,5.67,9.66,8.46,14.44a18.93,18.93,0,0,0,23.3,7.67l24.89-10.36a18.83,18.83,0,0,0,11.06-21.91c-1.3-5.28-2.69-10.75-4.19-16.23A127.19,127.19,0,0,0,247.76,227c5.38,1.49,10.86,2.88,16.23,4.18a18.89,18.89,0,0,0,21.91-11.06l10.35-24.89a18.94,18.94,0,0,0-7.76-23.31Zm-20.81,39.54c-5.08-1.29-10.36-2.59-15.53-4.08A18.62,18.62,0,0,0,232.43,214,107.38,107.38,0,0,1,214,232.37a18.77,18.77,0,0,0-6.57,19.72c1.39,5.28,2.79,10.46,4.08,15.54l-22.9,9.46c-2.69-4.58-5.48-9.16-8.17-13.84a18.85,18.85,0,0,0-18.61-9.37,102.76,102.76,0,0,1-26,0,18.7,18.7,0,0,0-18.62,9.37c-2.69,4.68-5.48,9.36-8.17,13.84l-22.9-9.46c1.3-5.08,2.59-10.36,4.08-15.54a18.62,18.62,0,0,0-6.57-19.72A107.38,107.38,0,0,1,65.25,214a18.72,18.72,0,0,0-19.71-6.57c-5.18,1.39-10.46,2.79-15.54,4.08l-9.45-22.91c4.48-2.68,9.16-5.47,13.84-8.16a18.89,18.89,0,0,0,9.36-18.62,102.84,102.84,0,0,1,0-26,18.79,18.79,0,0,0-9.36-18.62c-4.68-2.69-9.26-5.38-13.84-8.17L30,86.08c5.08,1.29,10.36,2.59,15.54,4.08a18.64,18.64,0,0,0,19.71-6.57A107.8,107.8,0,0,1,83.67,65.16a18.72,18.72,0,0,0,6.57-19.71c-1.39-5.18-2.78-10.36-4.08-15.54l22.9-9.46c2.69,4.48,5.48,9.16,8.17,13.84a18.92,18.92,0,0,0,18.62,9.36,103.69,103.69,0,0,1,26,0,18.68,18.68,0,0,0,18.61-9.36c2.69-4.68,5.38-9.26,8.17-13.84l22.9,9.46c-1.29,5.08-2.59,10.36-4.08,15.54A18.64,18.64,0,0,0,214,65.16a107.8,107.8,0,0,1,18.42,18.43,18.72,18.72,0,0,0,19.72,6.57c5.17-1.39,10.45-2.79,15.53-4.08l9.46,22.9c-4.48,2.69-9.16,5.48-13.84,8.17a18.85,18.85,0,0,0-9.36,18.62,103.77,103.77,0,0,1,0,26,18.7,18.7,0,0,0,9.36,18.62c4.68,2.69,9.26,5.38,13.84,8.16Z"/><path class="cls-1" d="M212.4,122.46a68.8,68.8,0,1,0-127.1,52.7,68.06,68.06,0,0,0,37.3,37.2,68.76,68.76,0,0,0,89.8-89.9Zm-45,71.3a48.6,48.6,0,0,1-63.5-26.3,48.6,48.6,0,1,1,63.5,26.3Z"/></g></g></svg>