<svg xmlns="http://www.w3.org/2000/svg" xmlns:xlink="http://www.w3.org/1999/xlink" viewBox="0 0 367.14 335"><defs><style>.cls-1{fill:none;}.cls-2{clip-path:url(#clip-path);}.cls-3{fill:#fff;}</style><clipPath id="clip-path"><rect class="cls-1" y="0.1" width="367.1" height="335"/></clipPath></defs><title>logout</title><g id="Capa_2" data-name="Capa 2"><g id="Capa_1-2" data-name="Capa 1"><g class="cls-2"><path class="cls-3" d="M362.6,158.8l-39.3-27.7a10.81,10.81,0,0,0-17,8.8v16.9H117.7a10.8,10.8,0,0,0,0,21.6H306.3v16.9a10.78,10.78,0,0,0,17,8.8l39.3-27.7a10.8,10.8,0,0,0,0-17.6Z"/></g><path class="cls-3" d="M308.7,236.6a10.78,10.78,0,0,0-14.7,3.9,146,146,0,0,1-126.5,73c-80.5,0-146-65.5-146-146s65.5-146,146-146A146,146,0,0,1,294,94.5a10.75,10.75,0,1,0,18.6-10.8,167.5,167.5,0,1,0,0,167.6,10.78,10.78,0,0,0-3.9-14.7Z"/></g></g></svg>