<svg xmlns="http://www.w3.org/2000/svg" viewBox="0 0 512 512"><defs><style>.cls-1{fill:#a9a9aa;}</style></defs><title>dias</title><g id="Capa_2" data-name="Capa 2"><g id="Layer_1" data-name="Layer 1"><path class="cls-1" d="M422.27,21.11V18.47A18.5,18.5,0,0,0,403.79,0H382.68a18.49,18.49,0,0,0-18.47,18.47v2.64H285V18.47A18.5,18.5,0,0,0,266.56,0H245.44A18.5,18.5,0,0,0,227,18.47v2.64H147.79V18.47A18.49,18.49,0,0,0,129.32,0H108.21A18.5,18.5,0,0,0,89.73,18.47v2.64H0V512H512V21.11ZM380,18.47a2.67,2.67,0,0,1,2.64-2.63h21.11a2.67,2.67,0,0,1,2.64,2.63V63.34H380V18.47Zm-137.24,0a2.67,2.67,0,0,1,2.64-2.63h21.12a2.67,2.67,0,0,1,2.64,2.63V63.34H242.8V18.47Zm-137.23,0a2.67,2.67,0,0,1,2.64-2.63h21.11A2.67,2.67,0,0,1,132,18.47V63.34H105.57V18.47Zm390.6,477.7H15.84V163.63H496.16V496.17Zm0-348.38H15.84V121.4h424.9V105.57H15.84V37H89.73V79.18h58.06V37H227V79.18H285V37h79.18V79.18h58.06V37h73.9Z"/><path class="cls-1" d="M248.08,184.74v68.62H37V475.05H369.48V411.71H475.05v-227ZM229.29,269.2l-26.07,16.95L177.14,269.2Zm0,52.78H177.14l26.08-17Zm-70.94-46.11,30.34,19.72-30.34,19.72ZM52.78,417.78l29.48,17.68L52.78,453.15Zm20.67-6.07h48.4l-24.2,14.52Zm0,47.51,24.2-14.52,24.2,14.52Zm69.06-6.07L113,435.46l29.47-17.68Zm0-57.27H52.78V337.81h89.74v58.07Zm0-73.9H52.78V269.2h89.74V322ZM248.08,459.22H158.35V411.71h89.73Zm0-63.34H158.35V337.81h89.73Zm0-80.57-30.34-19.72,30.34-19.72Zm86.78-114.73-26.08,16.95-26.07-16.95Zm-26.08,159-29-21.77h58.07Zm0,19.33,26.07,17H282.71ZM282.71,322l26.07-17,26.08,17Zm0-52.78h52.15l-26.08,16.95Zm0-15.84,26.07-17,26.08,17Zm-18.79-46.11L294.26,227l-30.34,19.72Zm0,68.62,30.34,19.72-30.34,19.72Zm0,69.86L295,369,263.92,389.2Zm89.73,113.49H263.92V411.71h89.73Zm0-70L322.6,369l31-23.29Zm0-73.89-30.34-19.72,30.34-19.72Zm0-68.62L323.31,227l30.34-19.72Zm86.78-46.11-26.08,16.95-26.07-16.95Zm0,52.78H388.28l26.07-17Zm-70.95-46.11L399.82,227l-30.34,19.72Zm89.74,188.63H369.48V337.81h89.74Zm0-73.9H369.48V269.2h89.74Zm0-75.29L428.88,227l30.34-19.72Z"/></g></g></svg>