<svg xmlns="http://www.w3.org/2000/svg" xmlns:xlink="http://www.w3.org/1999/xlink" viewBox="0 0 22.44 30.72"><defs><style>.cls-1{fill:#ebd6b8;}.cls-2,.cls-7{fill:#292d34;}.cls-3{opacity:0.71;isolation:isolate;fill:url(#Degradado_sin_nombre);}.cls-4{fill:#ed8b9a;}.cls-5{fill:url(#Degradado_sin_nombre_2);}.cls-6{fill:#7bc678;}.cls-7{font-size:1.21px;stroke:#292d34;stroke-miterlimit:10;stroke-width:0.03px;font-family:OpinionProExtraCondensed-Light, Opinion Pro ExtraCondensed;font-weight:300;}.cls-8{letter-spacing:-0.02em;}.cls-9{letter-spacing:-0.01em;}.cls-10{letter-spacing:-0.01em;}.cls-11{letter-spacing:-0.01em;}.cls-12{letter-spacing:-0.01em;}.cls-13{letter-spacing:-0.02em;}.cls-14{letter-spacing:0em;}.cls-15{fill:#2a2d33;}</style><linearGradient id="Degradado_sin_nombre" x1="18.88" y1="17.19" x2="22.18" y2="17.19" gradientTransform="matrix(1, 0, 0, -1, 0, 32.15)" gradientUnits="userSpaceOnUse"><stop offset="0" stop-color="#ffffda"/><stop offset="1" stop-color="#ed8b9a"/></linearGradient><linearGradient id="Degradado_sin_nombre_2" x1="0.94" y1="29.39" x2="4.52" y2="23.42" gradientTransform="matrix(1, 0, 0, -1, 0, 32.15)" gradientUnits="userSpaceOnUse"><stop offset="0" stop-color="#fff"/><stop offset="1" stop-color="#7bc678"/></linearGradient></defs><title>modal_premium</title><g id="Capa_2" data-name="Capa 2"><g id="Capa_1-2" data-name="Capa 1"><path class="cls-1" d="M3.06,1.53c1.36,9,1.36,13.57,1,16-.24,1.89-.08,3.81-.34,5.69a7.3,7.3,0,0,0,.3,4.18,4.66,4.66,0,0,0,1.1,1.48c.79.74,13,.76,14.3-.05,2-1.21,1-4.55.25-9.86,0,0,0-.06-.57-4.06q.41-6.78.82-13.57Z"/><path class="cls-2" d="M21.48,28.93a1.53,1.53,0,0,1-.14.69,1.78,1.78,0,0,1-.17.3,1.47,1.47,0,0,1-.85.57l-.17,0h-.5l-2.63,0-2.63,0-2.63,0-2.62.05c-.88,0-1.75,0-2.63,0s-1.75,0-2.63-.07l-.33,0H3.37l-.17,0a1.53,1.53,0,0,1-.64-.34,1.61,1.61,0,0,1-.41-.59,2.25,2.25,0,0,1-.09-.35,1.45,1.45,0,0,1,0-.36s0,0,0,0a0,0,0,0,1,0,0,1.21,1.21,0,0,0,.07.33,1.66,1.66,0,0,0,.12.31,2.48,2.48,0,0,0,.19.26A1.51,1.51,0,0,0,2.7,30a1.32,1.32,0,0,0,.55.23h.63c.88,0,1.75-.07,2.63-.08s1.75,0,2.63,0l2.63,0,2.63,0,2.62,0,2.63.05h.49l.16,0a1.43,1.43,0,0,0,.57-.27,1.67,1.67,0,0,0,.23-.23,1.34,1.34,0,0,0,.18-.28,1.6,1.6,0,0,0,.16-.65s0,0,0,0S21.48,28.91,21.48,28.93Z"/><path class="cls-2" d="M20,.29l-1,0-.95,0L16.21.4l-1.92,0-1.91,0L10.46.53H8.55c-.64,0-1.28,0-1.92-.07S5.35.37,4.72.3t0,0s0,0,0,0C5.35.17,6,.12,6.63.09S7.91,0,8.55,0h1.91l1.92.05,1.91,0,1.92,0L18.13.2l.95,0,1,0a0,0,0,0,1,0,0Z"/><path class="cls-3" d="M22.18,26.63,22,3.28s-3.88,8.88-3,10.81a2,2,0,0,0,1.9,1.25"/><path class="cls-4" d="M22,8.51V7.09C22,6,22,4.92,22,3.83s0-2.17,0-3.26l.49.1c-.11.3-.22.6-.32.91l-.32.91-.3.91c-.11.31-.21.61-.31.92C20.77,5.55,20.39,6.77,20,8c-.17.62-.33,1.25-.48,1.87a17.81,17.81,0,0,0-.33,1.89c0,.16,0,.32,0,.48a2.36,2.36,0,0,0,0,.46l0,.23,0,.05,0,0,0,.1a2.6,2.6,0,0,0,.23.4,1.67,1.67,0,0,0,.31.34,1.64,1.64,0,0,0,.37.26,1.92,1.92,0,0,0,.42.16l.22,0h.22s0,0,0,0,0,0,0,0a1.84,1.84,0,0,1-.47,0,2.35,2.35,0,0,1-.45-.14,2.17,2.17,0,0,1-.76-.59,2.36,2.36,0,0,1-.28-.42.37.37,0,0,1,0-.11l0-.06,0-.07a1.14,1.14,0,0,1-.06-.25,2.81,2.81,0,0,1,0-.5,4.13,4.13,0,0,1,0-.5,7.93,7.93,0,0,1,.1-1c0-.33.1-.65.16-1s.13-.64.2-1,.14-.63.22-1c.31-1.26.68-2.5,1.06-3.74l.3-.93c.1-.3.2-.61.31-.92l.15-.46.16-.45L22,.47h0a.25.25,0,0,1,.33-.15.28.28,0,0,1,.16.25c0,1.09,0,2.17,0,3.26s0,2.17,0,3.26l-.05,6.52,0,3.26,0,3.26,0,3.26,0,3.26a0,0,0,0,1,0,0s0,0,0,0l0-3.26,0-3.26,0-3.26,0-3.26,0-5.1"/><path class="cls-5" d="M4.17,1.17a57.52,57.52,0,0,1,.47,6.16C4.51,8.36,4.17,10,2.41,10H2.25C.5,10,.15,8.36,0,7.33A44.94,44.94,0,0,1,.5,1.86"/><path class="cls-6" d="M1.09,1.81c0,.79-.1,1.58-.16,2.36L.84,5.35c0,.2,0,.39,0,.59l0,.58c0,.19,0,.39,0,.58v.27a2.89,2.89,0,0,0,0,.29A5.05,5.05,0,0,0,1,8.22a.65.65,0,0,0,0,.13c0,.05,0,.09,0,.14a.69.69,0,0,1,.05.13l.06.13a2.69,2.69,0,0,0,.28.46,1.74,1.74,0,0,0,.4.37,1.86,1.86,0,0,0,.49.24l.27.07.14,0,.13,0H2.57l-.28,0a1.87,1.87,0,0,1-.55-.18,2.07,2.07,0,0,1-.47-.37l-.05,0-.05-.06,0-.06,0-.06L1,9.07,1,9,.91,8.88a2.83,2.83,0,0,1-.23-.57,3.92,3.92,0,0,1-.15-.59,2.93,2.93,0,0,1-.05-.29V7.35a.17.17,0,0,1,0-.07V7.12c0-.21,0-.41,0-.61,0-.4,0-.8.09-1.19L.68,4.14C.79,3.36.92,2.58,1.09,1.81Z"/><path class="cls-6" d="M4.77,1.12c.16.83.29,1.67.4,2.51s.19,1.68.24,2.53c0,.22,0,.43,0,.65v.32c0,.06,0,.12,0,.17s0,.11,0,.16l-.06.32c0,.11-.05.21-.08.32s-.06.21-.1.31A2.45,2.45,0,0,1,5,8.72l0,.07,0,.07L4.87,9a2.48,2.48,0,0,1-.19.26,1.84,1.84,0,0,1-1.07.64l-.15,0H3l.15,0,.14,0,.15,0,.14,0a2,2,0,0,0,.52-.27l0,0,0,0,.06-.05.06,0,0-.05,0-.06,0,0,.09-.12a2.43,2.43,0,0,0,.28-.53A5.17,5.17,0,0,0,5.07,7.4l0-.15s0-.09,0-.15V6.8c0-.21,0-.42,0-.63C5,5.33,5,4.49,4.91,3.65S4.8,2,4.77,1.12Z"/><path class="cls-6" d="M2.42,1.81c0,.45.07.89.1,1.33l0,.66,0,.67c0,.22,0,.44.05.66a5,5,0,0,1,0,.67,4.93,4.93,0,0,1-.07.66,4.27,4.27,0,0,1-.15.67,0,0,0,0,1,0,0h0a5.8,5.8,0,0,1-.15-.67c0-.22-.06-.44-.07-.66s0-.45,0-.67,0-.44.05-.66l0-.67,0-.66.09-1.33,0,0A0,0,0,0,1,2.42,1.81Z"/><path class="cls-6" d="M3.57,1.81l.09,1.33,0,.66,0,.67c0,.22,0,.44,0,.66s0,.45,0,.67,0,.44-.07.66a5.8,5.8,0,0,1-.15.67s0,0,0,0h0a5.8,5.8,0,0,1-.15-.67A4.93,4.93,0,0,1,3.3,5.8a5,5,0,0,1,0-.67c0-.22,0-.44.05-.66l0-.67,0-.66c0-.44.06-.89.1-1.33,0,0,0,0,0,0A0,0,0,0,1,3.57,1.81Z"/><path class="cls-6" d="M3.07,9.89,3.1,11l0,1.09,0,2.17,0,2.17,0,2.17c0,.73,0,1.45,0,2.17v.54c0,.18,0,.37,0,.55,0,.36,0,.72,0,1.08,0,.73,0,1.45-.07,2.17s-.08,1.45-.15,2.17t0,0s0,0,0,0c-.07-.72-.12-1.44-.15-2.17s-.06-1.44-.07-2.17c0-.36,0-.72,0-1.08V20.75c0-.72,0-1.44,0-2.17l0-2.17,0-2.17,0-2.17L3,11,3,9.89s0,0,0,0Z"/><path class="cls-2" d="M15.63,1.93l-.09-.07-.12,0-.12,0-.1.07a.41.41,0,0,0-.07.11.5.5,0,0,0,0,.12V3a.25.25,0,0,0,0,.12.21.21,0,0,0,.06.1.27.27,0,0,0,.08.07l.09,0V3.5h.11V3.31l.09,0a.27.27,0,0,0,.08-.07.21.21,0,0,0,.06-.1.25.25,0,0,0,0-.12V2.16a.5.5,0,0,0,0-.12A.41.41,0,0,0,15.63,1.93Zm-.27.81v.45a.13.13,0,0,1-.09-.07.15.15,0,0,1,0-.13V2.16a.22.22,0,0,1,0-.08l0-.06A.15.15,0,0,1,15.34,2l.08,0,.07,0a.15.15,0,0,1,.06.05l0,.06a.22.22,0,0,1,0,.08V3a.19.19,0,0,1,0,.14.15.15,0,0,1-.09.06V2.74Z"/><path class="cls-2" d="M16.19,2.69l.07,0,.08-.07a.31.31,0,0,0,.05-.1.36.36,0,0,0,0-.11V2.16a.31.31,0,0,0,0-.13.33.33,0,0,0-.06-.1l-.1-.07-.12,0h-.26V3.3H16V2.7h.12l.24.6h.12Zm.09-.23a.16.16,0,0,1,0,.07l-.06,0-.08,0H16V2h.15l.08,0,.06.05a.21.21,0,0,1,0,.06.24.24,0,0,1,0,.08v.22A.19.19,0,0,1,16.28,2.46Z"/><path class="cls-2" d="M12.27,2.59a.15.15,0,0,0-.06,0h-.16a.18.18,0,0,0-.07,0,.43.43,0,0,0,0,.07.24.24,0,0,0,0,.08v.34a.29.29,0,0,0,0,.09l0,.07.07,0,.08,0,.08,0s0,0,.06,0l.05-.07a.28.28,0,0,0,0-.09v0h-.09v0a.09.09,0,0,1,0,0,.08.08,0,0,1,0,0l0,0h-.09l0,0,0,0a.43.43,0,0,1,0,0V3l0,0,.06,0,.07,0h0a.18.18,0,0,0,.11-.16h0a.19.19,0,0,0,0-.08A.18.18,0,0,0,12.27,2.59Zm-.18.25-.06,0h0V2.74s0,0,0,0l0,0,0,0h.09l0,0,0,0a.09.09,0,0,1,0,.05s0,0,0,0l-.05,0h0Z"/><path class="cls-2" d="M12.72,2.76h-.34v.1h.34Z"/><path class="cls-2" d="M13.17,2.59a.18.18,0,0,0-.07,0h-.16a.15.15,0,0,0-.06,0,.18.18,0,0,0-.05.07.22.22,0,0,0,0,.08v.34a.28.28,0,0,0,0,.09l.05.07s0,0,.06,0l.08,0,.08,0,.07,0,0-.07a.29.29,0,0,0,0-.09v0h-.09v0s0,0,0,0l0,0,0,0H13l0,0a.08.08,0,0,1,0,0,.07.07,0,0,1,0,0V2.74a.06.06,0,0,1,0,0,.05.05,0,0,1,0,0l0,0h.09l0,0,0,0s0,0,0,0v0h.09v0a.19.19,0,0,0,0-.08A.43.43,0,0,0,13.17,2.59Z"/><path class="cls-2" d="M13.63,2.59l-.06,0h-.16a.15.15,0,0,0-.06,0,.18.18,0,0,0,0,.07.22.22,0,0,0,0,.08v0h.09v0a.06.06,0,0,1,0,0,.05.05,0,0,1,0,0l0,0h0a.09.09,0,0,1,.08,0,.11.11,0,0,1,0,.08v.07h0l-.06,0-.07,0,0,0a.15.15,0,0,0-.11.15v0a.28.28,0,0,0,0,.09l0,.07.07,0,.08,0,.09,0s0,0,0,0v0h.09V2.74a.22.22,0,0,0,0-.08A.16.16,0,0,0,13.63,2.59Zm-.15.61h0a.05.05,0,0,1,0,0l0,0V3s0,0,0,0l0,0,0,0,0,0,.06,0h0v.22l0,0,0,0Z"/><path class="cls-2" d="M14,2.53a.2.2,0,0,0-.11,0v0h-.13v.1h0v.66h.09V2.74s0,0,0,0l0,0,0,0h.12V2.53Z"/><path class="cls-2" d="M14.18,2.09h-.09v1a.28.28,0,0,0,0,.09l0,.07.06,0,.08,0h0V3.2h-.06l0,0a.08.08,0,0,1,0,0,.09.09,0,0,1,0,0V2.63h.15v-.1h-.15Z"/><path class="cls-2" d="M14.74,2.66a.16.16,0,0,0,0-.07.1.1,0,0,0-.06,0h-.16l-.06,0a.16.16,0,0,0,0,.07.24.24,0,0,0,0,.08v0h.09v0a.06.06,0,0,1,0,0,.05.05,0,0,1,0,0l0,0h0a.08.08,0,0,1,.08,0,.11.11,0,0,1,0,.08v.07h0l-.07,0-.06,0,0,0a.16.16,0,0,0-.12.15v0a.15.15,0,0,0,0,.09.25.25,0,0,0,0,.07l.06,0,.08,0,.09,0,0,0v0h.09V2.74A.24.24,0,0,0,14.74,2.66Zm-.3.42V3s0,0,0,0l.05,0,0,0,.06,0,.06,0h0v.17s0,0,0,0l0,0,0,0h-.09a.05.05,0,0,1,0,0,.08.08,0,0,1,0,0A.07.07,0,0,1,14.44,3.08Z"/><text class="cls-7" transform="translate(7.31 3.29)">Bie<tspan class="cls-8" x="1.07" y="0">n</tspan><tspan class="cls-9" x="1.48" y="0">v</tspan><tspan x="1.86" y="0">enido a</tspan></text><text class="cls-7" transform="translate(6.54 7.82)">ยก No <tspan class="cls-10" x="1.5" y="0">t</tspan><tspan x="1.8" y="0">e pie</tspan><tspan class="cls-11" x="3.43" y="0">r</tspan><tspan x="3.69" y="0">das los ben</tspan><tspan class="cls-12" x="7.61" y="0">e</tspan><tspan x="8.02" y="0">ficios de </tspan><tspan x="1.94" y="1.45">la cue</tspan><tspan class="cls-13" x="4.03" y="1.45">nt</tspan><tspan class="cls-14" x="4.74" y="1.45">a PREMIUM !</tspan></text><path class="cls-15" d="M9.65,12.18H9.47a.11.11,0,0,1-.11-.11v-.18a.11.11,0,0,1,.11-.11h.18a.11.11,0,0,1,.11.11v.18A.11.11,0,0,1,9.65,12.18Zm-.18-.34a.06.06,0,0,0-.06.05v.18a.06.06,0,0,0,.06.06h.18a.06.06,0,0,0,0-.06v-.18a0,0,0,0,0,0-.05Z"/><path class="cls-15" d="M10.1,12.18H9.92a.11.11,0,0,1-.11-.11v-.18a.11.11,0,0,1,.11-.11h.18a.11.11,0,0,1,.11.11v.18A.11.11,0,0,1,10.1,12.18Zm-.18-.34a.06.06,0,0,0-.06.05v.18a.06.06,0,0,0,.06.06h.18a.06.06,0,0,0,.05-.06v-.18a0,0,0,0,0-.05-.05Z"/><path class="cls-15" d="M10,12.63a.2.2,0,1,1,.2-.19A.2.2,0,0,1,10,12.63Zm0-.34a.15.15,0,0,0-.15.15.15.15,0,0,0,.15.14.14.14,0,0,0,.14-.14A.14.14,0,0,0,10,12.29Z"/><path class="cls-15" d="M9.65,12.63H9.47a.1.1,0,0,1-.11-.11v-.17a.1.1,0,0,1,.11-.11h.18a.1.1,0,0,1,.11.11v.17A.1.1,0,0,1,9.65,12.63Zm-.18-.34a.06.06,0,0,0-.06.06v.17a.06.06,0,0,0,.06.06h.18s0,0,0-.06v-.17s0-.06,0-.06Z"/><path class="cls-15" d="M10.37,12.26h.7l-.12.12a0,0,0,0,0,0,0H11l.17-.18h0a0,0,0,0,0,0,0h0L11,12H11a0,0,0,0,0,0,.05l.12.12h-.7s0,0,0,0S10.35,12.26,10.37,12.26Z"/><path class="cls-15" d="M8.43,12.15a.24.24,0,0,0,.17-.07.25.25,0,0,0,.08-.18.25.25,0,0,0-.08-.17.21.21,0,0,0-.17-.07.22.22,0,0,0-.17.07.23.23,0,0,0-.07.17.24.24,0,0,0,.07.18A.26.26,0,0,0,8.43,12.15Zm-.13-.38a.17.17,0,0,1,.13,0,.15.15,0,0,1,.13,0,.18.18,0,0,1,.06.13.21.21,0,0,1-.19.19A.18.18,0,0,1,8.3,12a.15.15,0,0,1-.05-.13A.17.17,0,0,1,8.3,11.77Z"/><path class="cls-15" d="M8.86,12.44a.13.13,0,0,0,0-.06s0-.05,0-.07l0-.06,0-.05-.06,0H8.64l0,0,0,0-.06,0H8.37l0,0,0,0,0,0H8.16a.1.1,0,0,0-.05,0l0,.05a.14.14,0,0,0,0,.06.64.64,0,0,0,0,.07.13.13,0,0,1,0,.06v.06a.19.19,0,0,0,.05.13.21.21,0,0,0,.13,0h.49a.17.17,0,0,0,.13,0,.15.15,0,0,0,0-.13Zm-.09.15a.12.12,0,0,1-.09,0H8.19a.14.14,0,0,1-.09,0,.12.12,0,0,1,0-.09v-.06a.07.07,0,0,0,0,0,.14.14,0,0,1,0-.06s0,0,0-.05l0,0,0,0h.06l0,0,.06,0,.09,0,.08,0,.07,0,0,0h.06l0,0,0,0,0,.05a.13.13,0,0,1,0,.06.11.11,0,0,1,0,0h0v.06A.12.12,0,0,1,8.77,12.59Z"/><path class="cls-15" d="M9.09,12.3a.11.11,0,0,1-.1-.1.1.1,0,0,1,.1-.1.09.09,0,0,1,.1.1A.1.1,0,0,1,9.09,12.3Zm0-.17a.07.07,0,1,0,.07.07A.07.07,0,0,0,9.09,12.13Z"/></g></g></svg>