<svg xmlns="http://www.w3.org/2000/svg" viewBox="0 0 515 450.26"><defs><style>.cls-1,.cls-2{fill:#a9a9aa;}.cls-2{stroke:#a9a9aa;stroke-miterlimit:10;stroke-width:3px;}</style></defs><title>pedidos</title><g id="Capa_2" data-name="Capa 2"><g id="Capa_1-2" data-name="Capa 1"><path class="cls-1" d="M279,378.55a22.51,22.51,0,1,0-13.45,28.84A22.56,22.56,0,0,0,279,378.55Zm-18.58,14.74a7.28,7.28,0,0,1-2.56.46,7.52,7.52,0,1,1,2.56-.46Z"/><path class="cls-2" d="M513.05,309.39,502.79,281.2A7.52,7.52,0,0,0,499,277l0,0-.35-.14-.32-.13-.08,0a7.47,7.47,0,0,0-5,.05l-24.53,8.92L416.48,142.29h0L396,85.91A7.5,7.5,0,0,0,381.86,91l18,49.33-96.31,35.06h0L244.78,196.8l-39.34-108,51.69-18.81,11.11,30.53a7.52,7.52,0,0,0,7,4.94,7.3,7.3,0,0,0,2.57-.46l37.59-13.68a7.45,7.45,0,0,0,4.23-3.87,7.53,7.53,0,0,0,.63-4.25v0c0-.19-.07-.39-.11-.58s0-.11,0-.17a6.59,6.59,0,0,0-.22-.72L308.81,51.13l51.68-18.81L371.6,62.85a7.54,7.54,0,0,0,7,4.94,7.34,7.34,0,0,0,2.57-.46,7.51,7.51,0,0,0,4.48-9.61L372,20.13a7.53,7.53,0,0,0-5.89-4.84,7.51,7.51,0,0,0-3.72.36L296.67,39.58h0l-.06,0L259.11,53.25l-.07,0-.11,0-65.66,23.9a7.49,7.49,0,0,0-4.48,9.61L233.24,209,276,326.46a61.78,61.78,0,0,0-16.94-2.7L150.75,26.17A37.55,37.55,0,0,0,102.68,3.76h0L6.45,38.47h0c-.17.06-.34.14-.5.21l-.19.08L5.27,39l-.19.1c-.15.09-.29.19-.43.29l-.19.13-.37.31L3.9,40c-.12.11-.22.23-.33.34l-.18.18-.29.36-.16.21a2.82,2.82,0,0,0-.24.36c-.06.08-.11.16-.16.24l-.2.37c0,.09-.09.18-.14.27l-.15.37c0,.1-.09.19-.12.29s-.08.25-.11.38-.07.21-.1.31-.05.25-.08.38l-.06.33c0,.13,0,.26,0,.39s0,.22,0,.34v.73c0,.13,0,.27,0,.4l0,.34c0,.13.05.26.08.4s0,.22.07.34.08.26.12.39.06.22.1.33H2L12.21,76.28c.08.22.18.41.27.61s.14.32.22.47.26.4.39.6.16.25.25.37a7.29,7.29,0,0,0,.53.58c.08.09.15.18.24.27s.43.35.65.52l.23.19c.24.16.5.3.75.44l.23.13a7.18,7.18,0,0,0,.81.32,1.7,1.7,0,0,0,.24.09,8.29,8.29,0,0,0,.86.21l.24,0a7.11,7.11,0,0,0,1.14.09l.64,0H20l.51-.07.23,0,.4-.09.43-.13.2-.07h0L111,48.59,216.78,339.17a62.48,62.48,0,1,0,103.58,48.27L508.56,319h0a.84.84,0,0,0,.14-.06l.56-.23.23-.13c.15-.07.29-.15.43-.23l.24-.16.38-.26.11-.1a5.32,5.32,0,0,0,.45-.38.46.46,0,0,1,.07-.07c.15-.15.3-.29.44-.45l.08-.1c.13-.15.25-.3.37-.46l0-.06a6.49,6.49,0,0,0,.36-.55l.06-.1.28-.53.09-.22c.06-.15.13-.3.18-.45s.07-.21.1-.32.08-.24.11-.37a5,5,0,0,0,.11-.56l0-.15A7.5,7.5,0,0,0,513.05,309.39ZM294.72,56.26l8.54,23.49L279.77,88.3l-8.55-23.49Zm44.46,122.15,8.55,23.49-23.5,8.55L315.68,187ZM249.91,210.9l51.68-18.81,11.11,30.53a7.47,7.47,0,0,0,9.61,4.48l37.59-13.68a7.49,7.49,0,0,0,4.48-9.61l-11.11-30.53L405,154.47l49.6,136.29L304.92,345.17a62.59,62.59,0,0,0-9.3-8.68ZM122.56,36.43l-.15-.35c0-.11-.09-.23-.15-.34s-.11-.2-.16-.3l-.2-.37-.16-.23c-.08-.13-.17-.26-.26-.38l-.15-.18c-.11-.13-.21-.26-.32-.38l-.15-.14a4.31,4.31,0,0,0-.37-.37l-.12-.1-.45-.36-.07,0a6.06,6.06,0,0,0-.53-.35l0,0a7.51,7.51,0,0,0-3.38-1h0a5.48,5.48,0,0,0-.7,0l-.13,0c-.2,0-.41,0-.61.06l-.29.05-.44.09-.51.16-.22.06h0L23.74,64.12,18.61,50l89.18-32.17h0A22.51,22.51,0,0,1,136.65,31.3l107,294.08a61.79,61.79,0,0,0-7.2,2.14,62.58,62.58,0,0,0-6.89,3ZM300.91,406.32A47.52,47.52,0,1,1,302.49,370,47.18,47.18,0,0,1,300.91,406.32Zm17.81-34.24a64.51,64.51,0,0,0-2.13-7.21,63.17,63.17,0,0,0-3-6.89l177.66-64.6,5.14,14.09Z"/></g></g></svg>