<svg xmlns="http://www.w3.org/2000/svg" viewBox="0 0 499 465.37"><defs><style>.cls-1,.cls-2{fill:#a9a9aa;}.cls-1{stroke:#a9a9aa;stroke-miterlimit:10;stroke-width:5px;}</style></defs><title>products</title><g id="Capa_2" data-name="Capa 2"><g id="Layer_1" data-name="Layer 1"><path class="cls-1" d="M466.42,200.87H441.51a24.53,24.53,0,0,0-23.42-18H391.5v-65a6.87,6.87,0,0,0-3.35-6.06L200.58,3.44a6.93,6.93,0,0,0-7,0L6,111.78a7,7,0,0,0-3.48,6.06V334.53A7,7,0,0,0,6,340.59L193.65,448.93a7,7,0,0,0,3.5.94,7.33,7.33,0,0,0,3.6-.94l98.75-57v41.18a29.65,29.65,0,0,0,29.56,29.72H466.42a29.81,29.81,0,0,0,30.08-29.53V231.05A30.19,30.19,0,0,0,466.42,200.87Zm-48.08-4A10.16,10.16,0,0,1,428.5,207h0v.68a10.16,10.16,0,0,1-10.16,10.16H377.66a10.16,10.16,0,0,1-10.16-10.16h0V207a10.16,10.16,0,0,1,10.16-10.16h40.68ZM197.15,17.58l78,45L101.49,162.85l-78-45ZM190.5,430.74,16.5,330.49V130l174,100.26Zm6.65-212.65-81.66-47.15L289.13,70.68l81.67,47.16Zm102.35,13V375.81l-95,54.93V230.21L377.5,130v52.92h.22a24.52,24.52,0,0,0-23.42,18H329.39A30,30,0,0,0,299.5,231.05Zm183,202.1a15.79,15.79,0,0,1-15.87,15.72H329.39A15.64,15.64,0,0,1,313.5,433.5V231.05a16,16,0,0,1,15.86-16.18h25.21a24,24,0,0,0,23.15,17h40.37a24,24,0,0,0,23.14-17h25.19a16.18,16.18,0,0,1,16.08,16.18Z"/><path class="cls-2" d="M337.45,301.87h7.33a7,7,0,0,0,0-14h-.28v-19h19.31a6.73,6.73,0,0,0,6.65,4.72,7,7,0,0,0,7-7V261.9a7.09,7.09,0,0,0-7.08-7h-33a7,7,0,0,0-6.95,7h0v33a7,7,0,0,0,6.91,7Z"/><path class="cls-2" d="M337.5,365.87h33a7,7,0,0,0,7-7v-33a7,7,0,0,0-7-7h-33a7,7,0,0,0-7,7v33A7,7,0,0,0,337.5,365.87Zm7-33h19v19h-19Z"/><path class="cls-2" d="M344.78,415.87h-.28v-19h18.93a7,7,0,0,0,14.07,0v-6.74a7.29,7.29,0,0,0-7.08-7.27h-33a7.19,7.19,0,0,0-6.95,7.27v33a6.76,6.76,0,0,0,6.75,6.76h7.53a7,7,0,0,0,0-14Z"/><path class="cls-2" d="M386.54,263.46,366,284l-6.23-6.24a7,7,0,0,0-9.9,9.9l11.18,11.19a7,7,0,0,0,9.9,0h0l25.45-25.45a7,7,0,1,0-9.9-9.9Z"/><path class="cls-2" d="M386.54,392.71,366,413.21,359.81,407a7,7,0,0,0-9.9,9.9l11.18,11.19a7,7,0,0,0,9.9,0h0l25.45-25.46a7,7,0,1,0-9.9-9.9Z"/><path class="cls-2" d="M458.36,271.87h-44a7,7,0,0,0,0,14h44a7,7,0,0,0,0-14Z"/><path class="cls-2" d="M458.36,335.87h-44a7,7,0,0,0,0,14h44a7,7,0,0,0,0-14Z"/><path class="cls-2" d="M458.36,399.87h-44a7,7,0,0,0,0,14h44a7,7,0,0,0,0-14Z"/></g></g></svg>