<svg xmlns="http://www.w3.org/2000/svg" viewBox="0 0 514.24 442.48"><defs><style>.cls-1{fill:#a9a9aa;stroke:#a9a9aa;stroke-miterlimit:10;stroke-width:4px;}</style></defs><title>shipping</title><g id="Capa_2" data-name="Capa 2"><g id="Capa_1-2" data-name="Capa 1"><path class="cls-1" d="M328.87,2H217.26a8,8,0,1,0,0,15.94H328.87a8,8,0,0,0,0-15.94Z"/><path class="cls-1" d="M289,2a8,8,0,0,0-8,8V49.83a8,8,0,1,0,15.94,0V10A8,8,0,0,0,289,2Z"/><path class="cls-1" d="M289,41.86H257.12a8,8,0,0,0,0,16H289a8,8,0,0,0,0-16Z"/><path class="cls-1" d="M257.12,2a8,8,0,0,0-8,8V49.83a8,8,0,1,0,15.94,0V10A8,8,0,0,0,257.12,2Z"/><path class="cls-1" d="M217.26,161.45H121.59a8,8,0,1,0,0,15.94h95.67a8,8,0,1,0,0-15.94Z"/><path class="cls-1" d="M328.87,145.5a8,8,0,0,0-8,8V289a8,8,0,0,0,15.94,0V153.48A8,8,0,0,0,328.87,145.5Z"/><path class="cls-1" d="M504.26,344.81H480.51a8,8,0,0,0,0,15.95h23.75a8,8,0,1,0,0-15.95Z"/><path class="cls-1" d="M504.26,344.81a8,8,0,0,0-8,8v31.89a8,8,0,0,0,15.95,0V352.79A8,8,0,0,0,504.26,344.81Z"/><path class="cls-1" d="M81.72,376.7h0l-55.81.17a8,8,0,0,0,0,15.95h0l55.81-.17a8,8,0,0,0,0-15.95Z"/><path class="cls-1" d="M496.29,305h-8a8,8,0,0,0,0,15.95h8a8,8,0,0,0,0-15.95Z"/><path class="cls-1" d="M496.29,249.15a8,8,0,0,0-8,8v95.67a8,8,0,1,0,15.94,0V257.12A8,8,0,0,0,496.29,249.15Z"/><path class="cls-1" d="M448.46,145.5H328.87a8,8,0,0,0,0,15.95H448.46a8,8,0,0,0,0-15.95Z"/><path class="cls-1" d="M503.53,253.78,455.7,150.14a8,8,0,1,0-14.48,6.68l47.83,103.64a8,8,0,0,0,7.25,4.63,7.89,7.89,0,0,0,3.33-.73A8,8,0,0,0,503.53,253.78Z"/><path class="cls-1" d="M25.92,344.81a8,8,0,0,0-8,8v32.39a8,8,0,0,0,16,0V352.79A8,8,0,0,0,25.92,344.81Z"/><path class="cls-1" d="M10,241.17a8,8,0,0,0-8,8V352.79a8,8,0,0,0,15.94,0V249.15A8,8,0,0,0,10,241.17Z"/><path class="cls-1" d="M328.87,241.17H10a8,8,0,0,0,0,16h318.9a8,8,0,0,0,0-16Z"/><path class="cls-1" d="M49.83,344.81H10a8,8,0,0,0,0,15.95H49.83a8,8,0,1,0,0-15.95Z"/><path class="cls-1" d="M129.56,328.87a55.81,55.81,0,1,0,55.81,55.81A55.88,55.88,0,0,0,129.56,328.87Zm0,95.67a39.87,39.87,0,1,1,39.86-39.86A39.9,39.9,0,0,1,129.56,424.54Z"/><path class="cls-1" d="M129.56,360.76a23.92,23.92,0,1,0,23.92,23.92A23.95,23.95,0,0,0,129.56,360.76Zm0,31.89a8,8,0,1,1,8-8A8,8,0,0,1,129.56,392.65Z"/><path class="cls-1" d="M392.65,360.76a23.92,23.92,0,1,0,23.92,23.92A23.95,23.95,0,0,0,392.65,360.76Zm0,31.89a8,8,0,1,1,8-8A8,8,0,0,1,392.65,392.65Z"/><path class="cls-1" d="M392.65,328.87a55.81,55.81,0,1,0,55.81,55.81A55.88,55.88,0,0,0,392.65,328.87Zm0,95.67a39.87,39.87,0,1,1,39.86-39.86A39.9,39.9,0,0,1,392.65,424.54Z"/><path class="cls-1" d="M345,376.7H177.39a8,8,0,0,0,0,15.95H345a8,8,0,1,0,0-15.95Z"/><path class="cls-1" d="M504.26,376.7H440.48a8,8,0,0,0,0,15.95h63.78a8,8,0,1,0,0-15.95Z"/><path class="cls-1" d="M496.29,249.15H400.62a8,8,0,0,0,0,15.94h95.67a8,8,0,0,0,0-15.94Z"/><path class="cls-1" d="M400.62,249.15a24,24,0,0,1-23.92-23.92,8,8,0,1,0-15.94,0,39.9,39.9,0,0,0,39.86,39.86,8,8,0,0,0,0-15.94Z"/><path class="cls-1" d="M368.73,145.5a8,8,0,0,0-8,8v71.75a8,8,0,1,0,15.94,0V153.48A8,8,0,0,0,368.73,145.5Z"/><path class="cls-1" d="M328.87,2a8,8,0,0,0-8,8V249.15a8,8,0,1,0,15.94,0V10A8,8,0,0,0,328.87,2Z"/><path class="cls-1" d="M217.26,2a8,8,0,0,0-8,8V249.15a8,8,0,0,0,15.95,0V10A8,8,0,0,0,217.26,2Z"/><path class="cls-1" d="M121.59,65.78a8,8,0,0,0-8,8v175.4a8,8,0,0,0,16,0V73.75A8,8,0,0,0,121.59,65.78Z"/><path class="cls-1" d="M169.42,161.45a8,8,0,0,0-8,8v23.92a8,8,0,0,0,15.94,0V169.42A8,8,0,0,0,169.42,161.45Z"/><path class="cls-1" d="M217.26,65.78H121.59a8,8,0,1,0,0,15.94h95.67a8,8,0,0,0,0-15.94Z"/><path class="cls-1" d="M169.42,65.78a8,8,0,0,0-8,8v16a8,8,0,1,0,15.94,0v-16A8,8,0,0,0,169.42,65.78Z"/><path class="cls-1" d="M25.92,121.59a8,8,0,0,0-8,8V249.15a8,8,0,0,0,16,0V129.56A8,8,0,0,0,25.92,121.59Z"/><path class="cls-1" d="M121.59,121.59H25.92a8,8,0,1,0,0,15.94h95.67a8,8,0,0,0,0-15.94Z"/><path class="cls-1" d="M57.81,121.59a8,8,0,0,0-8,8v23.92a8,8,0,0,0,16,0V129.56A8,8,0,0,0,57.81,121.59Z"/><path class="cls-1" d="M89.7,145.5H57.81a8,8,0,1,0,0,15.95H89.7a8,8,0,0,0,0-15.95Z"/><path class="cls-1" d="M89.7,121.59a8,8,0,0,0-8,8v23.92a8,8,0,0,0,16,0V129.56A8,8,0,0,0,89.7,121.59Z"/></g></g></svg>