<svg xmlns="http://www.w3.org/2000/svg" viewBox="0 0 530 521"><defs><style>.cls-1{fill:#a9a9aa;}.cls-2{fill:none;stroke:#a9a9aa;stroke-miterlimit:10;stroke-width:18px;}</style></defs><title>stats</title><g id="Capa_2" data-name="Capa 2"><g id="Capa_1-2" data-name="Capa 1"><path class="cls-1" d="M85,240a44.82,44.82,0,0,0,31.15-12.65l44.4,22.2A44.51,44.51,0,0,0,160,255a45,45,0,0,0,90,0,44.44,44.44,0,0,0-4.51-19.28l60.23-60.23A44.44,44.44,0,0,0,325,180a45.05,45.05,0,0,0,45-45,44.3,44.3,0,0,0-2.25-13.33l52.34-39.24A45,45,0,1,0,400,45a44.3,44.3,0,0,0,2.25,13.33L349.91,97.57a44.81,44.81,0,0,0-65.4,56.71l-60.23,60.23a44.23,44.23,0,0,0-50.43,8.14l-44.4-22.2A44.51,44.51,0,0,0,130,195a45,45,0,1,0-45,45Z"/><path class="cls-2" d="M506,482H490V165a15,15,0,0,0-15-15H415a15,15,0,0,0-15,15V482H370V255a15,15,0,0,0-15-15H295a15,15,0,0,0-15,15V482H250V375a15,15,0,0,0-15-15H175a15,15,0,0,0-15,15V482H130V315a15,15,0,0,0-15-15H55a15,15,0,0,0-15,15V482H24a15,15,0,0,0,0,30H506a15,15,0,0,0,0-30Z"/></g></g></svg>