<svg xmlns="http://www.w3.org/2000/svg" viewBox="0 0 512.24 512.23"><defs><style>.cls-1{fill:#a9a9aa;stroke:#a9a9aa;stroke-miterlimit:10;stroke-width:2px;}</style></defs><title>stock</title><g id="Capa_2" data-name="Capa 2"><g id="Capa_1-2" data-name="Capa 1"><path class="cls-1" d="M507,146.74,260.42,2.17A8.5,8.5,0,0,0,252,2.06L5.4,138.12A8.48,8.48,0,0,0,1,145.56V502.73a8.5,8.5,0,0,0,8.5,8.5H52a8.5,8.5,0,0,0,8.51-8.5V205.09H451.71V502.73a8.49,8.49,0,0,0,8.5,8.5h42.52a8.5,8.5,0,0,0,8.51-8.5V154.07A8.49,8.49,0,0,0,507,146.74ZM494.23,494.23H468.72V196.59a8.5,8.5,0,0,0-8.51-8.51H52a8.51,8.51,0,0,0-8.5,8.51V494.23H18V150.58L256,19.28,494.23,158.94V494.23Z"/><path class="cls-1" d="M426.2,392.18H324.15a8.49,8.49,0,0,0-8.5,8.5V502.73a8.49,8.49,0,0,0,8.5,8.5H426.2a8.49,8.49,0,0,0,8.5-8.5V400.68A8.49,8.49,0,0,0,426.2,392.18Zm-8.51,102.05h-85v-85h85Z"/><path class="cls-1" d="M383.68,400.68v25.51h-17V400.68h-17v34a8.5,8.5,0,0,0,8.51,8.5h34a8.49,8.49,0,0,0,8.5-8.5v-34Z"/><path class="cls-1" d="M324.15,392.18h-102a8.5,8.5,0,0,0-8.5,8.5V502.73a8.5,8.5,0,0,0,8.5,8.5h102a8.49,8.49,0,0,0,8.5-8.5V400.68A8.49,8.49,0,0,0,324.15,392.18Zm-8.5,102.05h-85v-85h85Z"/><path class="cls-1" d="M281.63,400.68v25.51h-17V400.68h-17v34a8.5,8.5,0,0,0,8.51,8.5h34a8.5,8.5,0,0,0,8.51-8.5v-34Z"/><path class="cls-1" d="M426.2,290.13H324.15a8.49,8.49,0,0,0-8.5,8.5V400.68a8.49,8.49,0,0,0,8.5,8.5H426.2a8.49,8.49,0,0,0,8.5-8.5V298.63A8.49,8.49,0,0,0,426.2,290.13Zm-8.51,102.05h-85v-85h85Z"/><path class="cls-1" d="M383.68,298.63v25.52h-17V298.63h-17v34a8.5,8.5,0,0,0,8.51,8.5h34a8.49,8.49,0,0,0,8.5-8.5v-34Z"/><rect class="cls-1" x="52.02" y="256.11" width="408.19" height="17.01"/><rect class="cls-1" x="52.02" y="222.1" width="408.19" height="17.01"/><path class="cls-1" d="M298.64,120.05h-85a8.51,8.51,0,0,0-8.5,8.5v34a8.51,8.51,0,0,0,8.5,8.5h85a8.5,8.5,0,0,0,8.5-8.5v-34A8.5,8.5,0,0,0,298.64,120.05Zm-8.51,34h-68v-17h68Z"/></g></g></svg>